<?xml version="1.0" encoding="UTF-8" standalone="no"?>
<svg
   xmlns:dc="http://purl.org/dc/elements/1.1/"
   xmlns:cc="http://creativecommons.org/ns#"
   xmlns:rdf="http://www.w3.org/1999/02/22-rdf-syntax-ns#"
   xmlns:svg="http://www.w3.org/2000/svg"
   xmlns="http://www.w3.org/2000/svg"
   xmlns:xlink="http://www.w3.org/1999/xlink"
   xmlns:sodipodi="http://sodipodi.sourceforge.net/DTD/sodipodi-0.dtd"
   xmlns:inkscape="http://www.inkscape.org/namespaces/inkscape"
   width="720"
   height="520"
   viewBox="0 0 720 520"
   version="1.1"
   id="svg8"
   inkscape:version="1.0.2-2 (e86c870879, 2021-01-15)"
   sodipodi:docname="Abstraction Logo (Inkscape).svg">
  <defs
     id="defs2">
    <linearGradient
       inkscape:collect="always"
       id="linearGradient1037">
      <stop
         style="stop-color:#001900;stop-opacity:1"
         offset="0"
         id="stop1033" />
      <stop
         style="stop-color:#008a00;stop-opacity:1"
         offset="1"
         id="stop1035" />
    </linearGradient>
    <inkscape:path-effect
       effect="powerstroke"
       id="path-effect20"
       is_visible="true"
       lpeversion="1"
       offset_points="2,0.13958851"
       sort_points="true"
       interpolator_type="CentripetalCatmullRom"
       interpolator_beta="0.2"
       start_linecap_type="zerowidth"
       linejoin_type="round"
       miter_limit="4"
       scale_width="1"
       end_linecap_type="zerowidth" />
    <inkscape:path-effect
       effect="powerstroke"
       id="path-effect18"
       is_visible="true"
       lpeversion="1"
       offset_points="1.9955632,-0.52757933"
       sort_points="true"
       interpolator_type="CentripetalCatmullRom"
       interpolator_beta="0.2"
       start_linecap_type="zerowidth"
       linejoin_type="round"
       miter_limit="4"
       scale_width="1"
       end_linecap_type="zerowidth" />
    <linearGradient
       inkscape:collect="always"
       xlink:href="#linearGradient1037"
       id="linearGradient1039"
       x1="174.57976"
       y1="158.24651"
       x2="278.42786"
       y2="31.624477"
       gradientUnits="userSpaceOnUse" />
    <clipPath
       clipPathUnits="userSpaceOnUse"
       id="clipPath1684">
      <g
         inkscape:label="Clip"
         id="use1686"
         style="stroke:#aaaaaa;stroke-width:0.327057;stroke-miterlimit:4;stroke-dasharray:none;stroke-opacity:0.666667"
         transform="matrix(1.3932366,0,0,1.3932367,-52.712903,-54.03019)">
        <g
           id="g888"
           style="opacity:1;stroke:#aaaaaa;stroke-width:0.327057;stroke-miterlimit:4;stroke-dasharray:none;stroke-opacity:0.666667"
           transform="translate(-124.73214,21.922619)">
          <path
             id="path886"
             style="color:#000000;font-style:normal;font-variant:normal;font-weight:normal;font-stretch:normal;font-size:medium;line-height:normal;font-family:sans-serif;font-variant-ligatures:normal;font-variant-position:normal;font-variant-caps:normal;font-variant-numeric:normal;font-variant-alternates:normal;font-variant-east-asian:normal;font-feature-settings:normal;font-variation-settings:normal;text-indent:0;text-align:start;text-decoration:none;text-decoration-line:none;text-decoration-style:solid;text-decoration-color:#000000;letter-spacing:normal;word-spacing:normal;text-transform:none;writing-mode:lr-tb;direction:ltr;text-orientation:mixed;dominant-baseline:auto;baseline-shift:baseline;text-anchor:start;white-space:normal;shape-padding:0;shape-margin:0;inline-size:0;clip-rule:nonzero;display:inline;overflow:visible;visibility:visible;isolation:auto;mix-blend-mode:normal;color-interpolation:sRGB;color-interpolation-filters:linearRGB;solid-color:#000000;solid-opacity:1;vector-effect:none;fill:url(#linearGradient892);fill-opacity:1;fill-rule:nonzero;stroke:#aaaaaa;stroke-width:0.327057;stroke-linecap:butt;stroke-linejoin:miter;stroke-miterlimit:4;stroke-dasharray:none;stroke-dashoffset:0;stroke-opacity:0.666667;color-rendering:auto;image-rendering:auto;shape-rendering:auto;text-rendering:auto;enable-background:accumulate;stop-color:#000000;stop-opacity:1"
             d="m 225.42234,37.911637 c -40.67496,7.544186 -98.44041,77.210113 -85.03348,138.983463 13.40693,61.77336 79.25833,-68.59188 94.41568,-77.653569 15.15736,-9.061679 21.86723,75.370199 46.12014,49.546259 C 305.17758,122.96386 266.0973,30.367451 225.42234,37.911637 Z m -12.62044,9.127089 c 30.95868,-12.702377 60.01501,50.337004 54.94378,69.735794 -5.07122,19.39879 -18.29994,-26.043526 -41.69904,-23.521844 -23.39911,2.521683 -49.84796,60.325684 -55.79306,35.295004 -5.9451,-25.03068 11.58965,-68.806578 42.54832,-81.508954 z"
             sodipodi:nodetypes="zzzzzzzzzz" />
        </g>
      </g>
    </clipPath>
    <pattern
       id="EMFhbasepattern"
       patternUnits="userSpaceOnUse"
       width="6"
       height="6"
       x="0"
       y="0" />
    <linearGradient
       inkscape:collect="always"
       xlink:href="#linearGradient1037"
       id="linearGradient892"
       gradientUnits="userSpaceOnUse"
       x1="174.57976"
       y1="158.24651"
       x2="278.42786"
       y2="31.624477" />
    <clipPath
       clipPathUnits="userSpaceOnUse"
       id="clipPath903">
      <g
         inkscape:label="Clip"
         id="use905">
        <text
           xml:space="preserve"
           style="font-style:normal;font-variant:normal;font-weight:normal;font-stretch:normal;font-size:37.153px;line-height:1.25;font-family:Garamond;-inkscape-font-specification:'Garamond, Normal';font-variant-ligatures:normal;font-variant-caps:normal;font-variant-numeric:normal;font-variant-east-asian:normal;display:inline;fill:#000000;fill-opacity:1;stroke:#aaaaaa;stroke-width:0.5;stroke-miterlimit:4;stroke-dasharray:none;stroke-opacity:0.666667"
           x="416.39728"
           y="562.67877"
           id="text919"><tspan
             sodipodi:role="line"
             id="tspan917"
             x="416.39728"
             y="562.67877"
             style="font-style:normal;font-variant:normal;font-weight:normal;font-stretch:normal;font-size:37.153px;font-family:Garamond;-inkscape-font-specification:'Garamond, Normal';font-variant-ligatures:normal;font-variant-caps:normal;font-variant-numeric:normal;font-variant-east-asian:normal;stroke:#aaaaaa;stroke-width:0.5;stroke-miterlimit:4;stroke-dasharray:none;stroke-opacity:0.666667">webpack.simplified</tspan></text>
        <text
           xml:space="preserve"
           style="font-style:normal;font-variant:normal;font-weight:normal;font-stretch:normal;font-size:81.7366px;line-height:125%;font-family:Garamond;-inkscape-font-specification:'Garamond, Normal';font-variant-ligatures:normal;font-variant-caps:normal;font-variant-numeric:normal;font-variant-east-asian:normal;text-align:start;letter-spacing:0px;word-spacing:0px;text-anchor:start;display:inline;fill:#000000;fill-opacity:1;stroke:#aaaaaa;stroke-width:0.5;stroke-miterlimit:4;stroke-dasharray:none;stroke-opacity:0.666667"
           x="444.35892"
           y="519.44196"
           id="text925"><tspan
             sodipodi:role="line"
             x="444.35892"
             y="519.44196"
             id="tspan923"
             style="font-style:normal;font-variant:normal;font-weight:normal;font-stretch:normal;font-size:81.7366px;font-family:Garamond;-inkscape-font-specification:'Garamond, Normal';font-variant-ligatures:normal;font-variant-caps:normal;font-variant-numeric:normal;font-variant-east-asian:normal;stroke:#aaaaaa;stroke-width:0.5;stroke-miterlimit:4;stroke-dasharray:none;stroke-opacity:0.666667"><tspan
               dx="0 0 0 0 0 0 -11.936543"
               dy="0 0 0 0 0 0 0"
               style="font-style:normal;font-variant:normal;font-weight:normal;font-stretch:normal;font-size:81.7366px;font-family:Garamond;-inkscape-font-specification:'Garamond, Normal';font-variant-ligatures:normal;font-variant-caps:normal;font-variant-numeric:normal;font-variant-east-asian:normal;fill:#031f00;stroke:#aaaaaa;stroke-width:0.5;stroke-miterlimit:4;stroke-dasharray:none;stroke-opacity:0.666667"
               id="tspan921">ABSTRACTION</tspan></tspan></text>
        <g
           inkscape:label="Clip"
           id="g932"
           style="stroke:#aaaaaa;stroke-width:0.327057;stroke-miterlimit:4;stroke-dasharray:none;stroke-opacity:0.666667"
           transform="matrix(2.8947499,0,0,3.2295468,251.96221,-123.73541)">
          <g
             id="g930"
             style="opacity:1;stroke:#aaaaaa;stroke-width:0.327057;stroke-miterlimit:4;stroke-dasharray:none;stroke-opacity:0.666667"
             transform="translate(-124.73214,21.922619)">
            <path
               id="path927"
               style="color:#000000;font-style:normal;font-variant:normal;font-weight:normal;font-stretch:normal;font-size:medium;line-height:normal;font-family:sans-serif;font-variant-ligatures:normal;font-variant-position:normal;font-variant-caps:normal;font-variant-numeric:normal;font-variant-alternates:normal;font-variant-east-asian:normal;font-feature-settings:normal;font-variation-settings:normal;text-indent:0;text-align:start;text-decoration:none;text-decoration-line:none;text-decoration-style:solid;text-decoration-color:#000000;letter-spacing:normal;word-spacing:normal;text-transform:none;writing-mode:lr-tb;direction:ltr;text-orientation:mixed;dominant-baseline:auto;baseline-shift:baseline;text-anchor:start;white-space:normal;shape-padding:0;shape-margin:0;inline-size:0;clip-rule:nonzero;display:inline;overflow:visible;visibility:visible;isolation:auto;mix-blend-mode:normal;color-interpolation:sRGB;color-interpolation-filters:linearRGB;solid-color:#000000;solid-opacity:1;vector-effect:none;fill:url(#linearGradient936);fill-opacity:1;fill-rule:nonzero;stroke:#aaaaaa;stroke-width:0.327057;stroke-linecap:butt;stroke-linejoin:miter;stroke-miterlimit:4;stroke-dasharray:none;stroke-dashoffset:0;stroke-opacity:0.666667;color-rendering:auto;image-rendering:auto;shape-rendering:auto;text-rendering:auto;enable-background:accumulate;stop-color:#000000;stop-opacity:1"
               d="m 225.42234,37.911637 c -40.67496,7.544186 -98.44041,77.210113 -85.03348,138.983463 13.40693,61.77336 79.25833,-68.59188 94.41568,-77.653569 15.15736,-9.061679 21.86723,75.370199 46.12014,49.546259 C 305.17758,122.96386 266.0973,30.367451 225.42234,37.911637 Z m -12.62044,9.127089 c 30.95868,-12.702377 60.01501,50.337004 54.94378,69.735794 -5.07122,19.39879 -18.29994,-26.043526 -41.69904,-23.521844 -23.39911,2.521683 -49.84796,60.325684 -55.79306,35.295004 -5.9451,-25.03068 11.58965,-68.806578 42.54832,-81.508954 z"
               sodipodi:nodetypes="zzzzzzzzzz" />
          </g>
        </g>
      </g>
    </clipPath>
    <linearGradient
       inkscape:collect="always"
       xlink:href="#linearGradient1037"
       id="linearGradient936"
       gradientUnits="userSpaceOnUse"
       x1="174.57976"
       y1="158.24651"
       x2="278.42786"
       y2="31.624477" />
  </defs>
  <sodipodi:namedview
     id="base"
     pagecolor="#ffffff"
     bordercolor="#666666"
     borderopacity="1.0"
     inkscape:pageopacity="0"
     inkscape:pageshadow="2"
     inkscape:zoom="0.64"
     inkscape:cx="626.53792"
     inkscape:cy="295.94609"
     inkscape:document-units="px"
     inkscape:current-layer="g1071"
     inkscape:document-rotation="0"
     showgrid="false"
     inkscape:snap-bbox="true"
     inkscape:window-width="1600"
     inkscape:window-height="847"
     inkscape:window-x="-8"
     inkscape:window-y="-8"
     inkscape:window-maximized="1"
     units="px"
     width="600px"
     inkscape:snap-others="false"
     inkscape:snap-midpoints="true"
     inkscape:snap-nodes="false"
     scale-x="1" />
  <metadata
     id="metadata5">
    <rdf:RDF>
      <cc:Work
         rdf:about="">
        <dc:format>image/svg+xml</dc:format>
        <dc:type
           rdf:resource="http://purl.org/dc/dcmitype/StillImage" />
        <dc:title></dc:title>
      </cc:Work>
    </rdf:RDF>
  </metadata>
  <g
     inkscape:groupmode="layer"
     id="g1020"
     inkscape:label="webpack.simplified (text)"
     style="display:none">
    <text
       xml:space="preserve"
       style="font-style:normal;font-variant:normal;font-weight:normal;font-stretch:normal;font-size:37.153px;line-height:1.25;font-family:Garamond;-inkscape-font-specification:'Garamond, Normal';font-variant-ligatures:normal;font-variant-caps:normal;font-variant-numeric:normal;font-variant-east-asian:normal;display:inline;fill:#000000;fill-opacity:1;stroke:none;stroke-width:0.5;stroke-miterlimit:4;stroke-dasharray:none;stroke-opacity:0.666667"
       x="136.26678"
       y="502.52972"
       id="text1006"><tspan
         sodipodi:role="line"
         id="tspan1004"
         x="136.26678"
         y="502.52972"
         style="font-style:normal;font-variant:normal;font-weight:normal;font-stretch:normal;font-size:37.153px;font-family:Garamond;-inkscape-font-specification:'Garamond, Normal';font-variant-ligatures:normal;font-variant-caps:normal;font-variant-numeric:normal;font-variant-east-asian:normal;stroke:none;stroke-width:0.5;stroke-miterlimit:4;stroke-dasharray:none;stroke-opacity:0.666667">webpack.simplified</tspan></text>
  </g>
  <g
     inkscape:groupmode="layer"
     id="g1002"
     inkscape:label="Abstraction (text)"
     style="display:none">
    <text
       xml:space="preserve"
       style="font-style:normal;font-variant:normal;font-weight:normal;font-stretch:normal;font-size:81.7366px;line-height:125%;font-family:Garamond;-inkscape-font-specification:'Garamond, Normal';font-variant-ligatures:normal;font-variant-caps:normal;font-variant-numeric:normal;font-variant-east-asian:normal;text-align:start;letter-spacing:0px;word-spacing:0px;text-anchor:start;display:inline;fill:#000000;fill-opacity:1;stroke:none;stroke-width:0;stroke-miterlimit:4;stroke-dasharray:none;stroke-opacity:1;paint-order:stroke markers fill"
       x="164.22842"
       y="459.29291"
       id="text994"><tspan
         sodipodi:role="line"
         x="164.22842"
         y="459.29291"
         id="tspan992"
         style="font-style:normal;font-variant:normal;font-weight:normal;font-stretch:normal;font-size:81.7366px;font-family:Garamond;-inkscape-font-specification:'Garamond, Normal';font-variant-ligatures:normal;font-variant-caps:normal;font-variant-numeric:normal;font-variant-east-asian:normal;stroke:none;stroke-width:0;stroke-miterlimit:4;stroke-dasharray:none;stroke-opacity:1;paint-order:stroke markers fill"><tspan
           dx="0 0 0 0 0 0 -11.936543"
           dy="0 0 0 0 0 0 0"
           style="font-style:normal;font-variant:normal;font-weight:normal;font-stretch:normal;font-size:81.7366px;font-family:Garamond;-inkscape-font-specification:'Garamond, Normal';font-variant-ligatures:normal;font-variant-caps:normal;font-variant-numeric:normal;font-variant-east-asian:normal;fill:#031f00;stroke:none;stroke-width:0;stroke-miterlimit:4;stroke-dasharray:none;stroke-opacity:1;paint-order:stroke markers fill"
           id="tspan990">ABSTRACTION</tspan></tspan></text>
  </g>
  <g
     inkscape:groupmode="layer"
     id="g1071"
     inkscape:label="webpack.simplified (path)"
     style="display:inline">
    <g
       aria-label="webpack.simplified"
       id="text1069"
       style="font-style:normal;font-variant:normal;font-weight:normal;font-stretch:normal;font-size:37.153px;line-height:1.25;font-family:Garamond;-inkscape-font-specification:'Garamond, Normal';font-variant-ligatures:normal;font-variant-caps:normal;font-variant-numeric:normal;font-variant-east-asian:normal;display:inline;fill:#000000;fill-opacity:1;stroke:#ffffff;stroke-width:1.6;stroke-miterlimit:4;stroke-dasharray:none;stroke-opacity:1;paint-order:stroke markers fill">
      <path
         d="m 135.88582,488.23453 6.96619,0.0181 q 0.19955,0 0.27212,0.0726 0.0726,0.0726 0.0726,0.2177 0,0.34468 -0.27212,0.50795 -1.26987,0.0907 -1.57827,0.3084 -0.3084,0.21769 -0.3084,0.59865 0,0.18141 0.0363,0.34468 0.0544,0.2177 0.52609,1.28802 0.6168,1.43315 2.19508,4.64413 l 2.15879,4.39015 q 1.85039,-3.22912 2.99328,-6.00471 l -1.10661,-2.90258 q -0.18141,-0.3991 -0.47166,-1.19731 -0.27212,-0.79821 -0.43539,-0.9252 -0.14513,-0.14513 -1.10661,-0.41725 -0.96148,-0.27211 -1.14289,-0.41724 l -0.0181,-0.12699 q 0,-0.10885 0.10885,-0.3084 0.43538,-0.10884 0.68936,-0.10884 l 1.03404,0.0181 h 2.26764 l 0.68936,-0.0181 2.23136,0.0363 q 0.27212,0 0.45353,-0.0181 h 0.3084 q 0.10884,0 0.3084,0.0181 l -0.0363,0.58051 q -0.27211,0.16327 -0.90705,0.23584 -1.19731,0.12699 -1.83225,0.45353 -0.19956,0.21769 -0.19956,0.38096 0,0.3991 0.2177,0.99776 0.0726,0.18141 0.38096,1.12475 l 1.9411,5.11579 q 0.85263,2.28578 1.30616,3.19284 0.76193,-1.39687 2.14065,-5.02509 0.48981,-1.26988 1.30616,-3.02956 0.52609,-1.10661 0.52609,-1.90482 0,-0.41725 -0.3084,-0.70751 -0.30839,-0.29025 -1.43314,-0.54423 -0.67122,-0.14513 -0.99776,-0.27212 -0.0907,-0.14512 -0.0907,-0.23583 0,-0.16327 0.19955,-0.36282 h 0.27212 l 1.46943,-0.0181 q 0.0907,0 0.83449,0.0363 0.74379,0.0181 1.45129,0.0181 0.54423,0 1.25174,-0.0363 h 0.90705 q 0.10885,0.0363 0.14513,0.0907 0.0544,0.0544 0.0544,0.18141 0,0.19956 -0.0544,0.43539 -0.88891,0.10885 -1.39686,0.41725 -0.50796,0.29025 -1.37873,1.6327 l -3.24726,7.80068 q -0.45353,1.08846 -1.57828,3.33796 -0.23583,0.47167 -0.36282,0.76193 -0.10884,0.29026 -0.21769,0.38096 -0.10885,0.0907 -0.29026,0.0907 -0.12699,0 -0.34468,-0.0726 -0.50795,-0.99776 -2.2495,-5.49676 -0.47167,-1.21545 -0.87077,-2.06808 -2.97514,6.18612 -3.90034,7.60112 -0.25398,0.0363 -0.38096,0.0363 -0.12699,0 -0.36283,-0.0363 l -3.42867,-7.16574 -3.13841,-6.13169 q -0.32654,-0.56238 -0.50795,-0.68936 -0.3084,-0.19956 -1.08847,-0.32654 -0.43538,-0.0726 -0.67122,-0.10885 -0.0181,-0.27212 -0.0181,-0.41725 0,-0.0907 0.0181,-0.27211 z"
         style="font-style:normal;font-variant:normal;font-weight:normal;font-stretch:normal;font-size:37.153px;font-family:Garamond;-inkscape-font-specification:'Garamond, Normal';font-variant-ligatures:normal;font-variant-caps:normal;font-variant-numeric:normal;font-variant-east-asian:normal;stroke:#ffffff;stroke-width:1.6;stroke-miterlimit:4;stroke-dasharray:none;stroke-opacity:1;paint-order:stroke markers fill"
         id="path1073" />
      <path
         d="m 174.90736,492.95122 -7.27459,0.0544 h -1.37872 q -0.8345,0 -1.70527,0.0726 -0.16327,0.54424 -0.16327,0.74379 l 0.0181,0.18141 v 0.18141 l -0.0181,0.88892 q 0,1.1066 0.68936,2.72116 0.70751,1.59642 1.99553,2.44905 1.30616,0.8345 3.24725,0.88892 1.03405,-0.0544 1.65085,-0.25398 0.61679,-0.19955 1.74154,-0.92519 l 1.30616,-1.07033 0.10885,0.72564 q 0,0.12699 -0.0181,0.27212 -0.81635,1.03405 -2.06809,1.81411 -1.25174,0.78007 -2.53975,1.14289 -0.6168,0.16327 -2.03181,0.16327 -1.28802,0 -2.53975,-0.52609 -1.8504,-0.79821 -2.92072,-2.5579 -1.05219,-1.77783 -1.05219,-4.29944 0,-0.79821 0.29026,-2.04995 0.3084,-1.25173 1.08847,-2.66674 0.52609,-0.96148 1.28802,-1.57828 1.08846,-0.87077 1.90481,-1.21545 1.17917,-0.48981 2.73931,-0.48981 1.68712,0 2.75745,0.6168 1.45129,0.81635 2.15879,2.10437 0.72565,1.28802 0.72565,2.35834 z m -10.12274,-0.65308 h 0.85263 q 0.92519,0 5.5149,-0.29026 0.72564,-0.0363 0.88891,-0.14513 0.32654,-0.34468 0.32654,-0.6168 0,-0.56237 -0.36282,-1.26988 -0.36282,-0.72564 -1.12475,-1.1066 -0.74379,-0.39911 -1.74155,-0.39911 -2.10437,0 -3.37424,1.57828 -0.97962,1.19731 -0.97962,2.2495 z"
         style="font-style:normal;font-variant:normal;font-weight:normal;font-stretch:normal;font-size:37.153px;font-family:Garamond;-inkscape-font-specification:'Garamond, Normal';font-variant-ligatures:normal;font-variant-caps:normal;font-variant-numeric:normal;font-variant-east-asian:normal;stroke:#ffffff;stroke-width:1.6;stroke-miterlimit:4;stroke-dasharray:none;stroke-opacity:1;paint-order:stroke markers fill"
         id="path1075" />
      <path
         d="m 176.63076,479.72634 v -0.0907 q 0,-0.18141 0.14513,-0.50795 1.97738,-0.34468 4.20874,-1.05219 0.12699,-0.0181 0.39911,-0.0181 0.0907,0.29026 0.0907,0.38097 v 5.40605 l -0.0181,1.7234 0.0181,1.92296 -0.0363,1.56014 q 0,0.0907 0.0363,0.61679 l 1.48757,-0.56237 q 0.23584,-0.0726 1.56014,-0.47167 1.68712,-0.27212 1.95924,-0.27212 1.81411,0 3.2654,0.58052 0.88891,0.36282 1.75969,1.21545 0.87077,0.8345 1.28802,1.77783 0.72564,1.72341 0.72564,2.97515 0,1.97738 -0.25398,2.7393 -0.61679,1.81412 -1.50571,2.8663 -0.88891,1.05219 -2.48533,1.79597 -1.59642,0.74379 -3.39239,0.74379 -1.65084,0 -3.12027,-0.6168 -1.46943,-0.6168 -1.65084,-0.6168 -0.56238,0 -1.43315,1.48757 l -0.52609,-0.0181 q -0.0726,-1.21545 -0.0726,-2.99328 l 0.0363,-2.70303 -0.0181,-1.37872 0.0363,-3.95477 -0.0363,-0.76192 0.0726,-1.86854 v -1.59642 l 0.0181,-0.65308 q 0,-0.19955 -0.0181,-1.57827 v -1.08847 q 0.0544,-3.15655 -0.27212,-3.64636 -0.52609,-0.78007 -2.26764,-1.34245 z m 8.61703,22.33172 q 2.75745,0 4.1906,-1.542 1.45129,-1.56014 1.45129,-4.62598 0,-2.81188 -1.6327,-4.55342 -1.6327,-1.74155 -4.02733,-1.74155 -1.74155,0 -2.92072,0.56237 -0.7075,0.34469 -0.79821,0.63494 -0.0726,0.29026 -0.0726,3.8822 0,4.26316 0.18141,4.98881 0.3084,1.12475 1.12475,1.61456 1.28802,0.78007 2.50347,0.78007 z"
         style="font-style:normal;font-variant:normal;font-weight:normal;font-stretch:normal;font-size:37.153px;font-family:Garamond;-inkscape-font-specification:'Garamond, Normal';font-variant-ligatures:normal;font-variant-caps:normal;font-variant-numeric:normal;font-variant-east-asian:normal;stroke:#ffffff;stroke-width:1.6;stroke-miterlimit:4;stroke-dasharray:none;stroke-opacity:1;paint-order:stroke markers fill"
         id="path1077" />
      <path
         d="m 195.42496,511.99939 q -0.0181,-0.19956 -0.0181,-0.36283 0,-0.12698 0.0363,-0.3084 l 1.81411,-0.36282 q 0.43538,-0.21769 0.7075,-0.52609 0.0907,-0.32654 0.0907,-0.65308 0,-2.79373 -0.14513,-10.64883 l -0.0544,-6.63965 q -0.0363,-1.57828 -0.19955,-1.99552 -0.0907,-0.2177 -0.27211,-0.34469 -0.45353,-0.34468 -1.81412,-0.58051 l 0.10885,-0.54423 q 1.95924,-0.8345 2.61232,-1.28802 0.67122,-0.47167 1.26988,-1.30616 l 0.21769,-0.0544 q 0.12699,0 0.36283,0.10885 -0.0181,1.14289 -0.0181,1.50571 l 0.0181,1.99552 q 1.34244,-1.0159 2.79373,-1.50571 1.45129,-0.50795 3.01142,-0.50795 2.79373,0 4.71669,1.97738 1.92296,1.95924 1.92296,5.06137 0,2.30392 -1.08847,4.13618 -1.07032,1.83225 -2.97514,2.73931 -1.88668,0.90705 -3.80963,0.90705 -1.6327,0 -3.73707,-0.88891 -0.34468,-0.14513 -0.6168,-0.25398 -0.0363,1.45129 -0.0363,2.57604 0,5.6056 0.3084,6.27682 0.16327,0.36283 1.0159,0.43539 1.45129,0.10885 1.92296,0.41725 0.27211,0.16327 0.36282,0.65308 l -1.79597,0.0363 -1.6327,-0.0363 -2.72117,0.0181 z m 4.73483,-20.75344 q -0.0363,0.25398 -0.0363,0.47167 0,6.47638 0.12699,7.25645 0.25398,1.43314 1.0159,2.01366 1.17918,0.9252 3.37425,0.9252 2.26764,0 3.82778,-1.56014 1.56013,-1.57828 1.56013,-4.08175 0,-3.01142 -1.65084,-4.77111 -1.65084,-1.75969 -4.35387,-1.75969 -1.14289,0 -2.10437,0.38096 -0.96147,0.36282 -1.75968,1.12475 z"
         style="font-style:normal;font-variant:normal;font-weight:normal;font-stretch:normal;font-size:37.153px;font-family:Garamond;-inkscape-font-specification:'Garamond, Normal';font-variant-ligatures:normal;font-variant-caps:normal;font-variant-numeric:normal;font-variant-east-asian:normal;stroke:#ffffff;stroke-width:1.6;stroke-miterlimit:4;stroke-dasharray:none;stroke-opacity:1;paint-order:stroke markers fill"
         id="path1079" />
      <path
         d="m 228.67762,500.06253 q 0.10885,0.23584 0.10885,0.34468 0,0.27212 -0.43539,0.96148 -0.56238,0.90706 -1.25174,1.3243 -0.43538,0.27212 -1.19731,0.27212 -1.30616,0 -1.95924,-0.79821 -0.39911,-0.47167 -0.56238,-1.68712 l -2.0318,1.41501 q -1.07033,0.61679 -1.6327,0.78006 -0.90706,0.23584 -2.17693,0.23584 -0.9252,0 -1.46943,-0.54424 -0.5261,-0.56237 -0.5261,-1.43314 0,-1.25174 1.52386,-2.99329 1.54199,-1.74154 4.17245,-2.84815 1.8504,-0.78007 2.26764,-0.99776 0.0363,-0.59866 0.0363,-1.30616 0,-2.30393 -0.65308,-3.12028 -0.63493,-0.81635 -1.83225,-0.81635 -1.25174,0 -2.3402,0.97962 -0.67122,0.6168 -1.0159,2.32207 -0.10885,0.47167 -0.41725,1.0159 -0.78007,0.50795 -1.25174,0.50795 -0.3991,0 -0.72564,-0.23583 -0.18141,-0.12699 -0.18141,-0.29026 0,-0.47167 0.99776,-2.12251 1.0159,-1.66898 2.53975,-2.48533 1.542,-0.8345 2.68489,-0.8345 1.56014,0 2.32206,0.29026 0.76193,0.27212 1.34244,0.97962 0.58052,0.70751 0.70751,1.542 0.0726,0.3991 0.0726,2.84815 l -0.0544,2.88444 0.0181,2.10437 q 0,0.41724 -0.0181,0.7075 -0.0181,0.52609 -0.0181,0.78007 0,0.59866 0.34468,0.96148 0.34468,0.36282 0.81635,0.36282 0.68936,0 1.17917,-0.68936 l 0.21769,-0.29026 q 0.0907,-0.0544 0.39911,-0.12699 z m -5.33349,-0.52609 q 0.12699,-2.30392 0.12699,-3.24726 0,-0.48981 -0.0544,-1.3243 -1.21546,0.43539 -2.57604,1.3243 -1.36059,0.88892 -2.15879,2.04995 -0.58052,0.83449 -0.58052,1.57827 0,0.70751 0.47167,1.17918 0.48981,0.47167 1.21545,0.47167 0.56238,0 1.36059,-0.39911 1.05218,-0.52609 2.19507,-1.6327 z"
         style="font-style:normal;font-variant:normal;font-weight:normal;font-stretch:normal;font-size:37.153px;font-family:Garamond;-inkscape-font-specification:'Garamond, Normal';font-variant-ligatures:normal;font-variant-caps:normal;font-variant-numeric:normal;font-variant-east-asian:normal;stroke:#ffffff;stroke-width:1.6;stroke-miterlimit:4;stroke-dasharray:none;stroke-opacity:1;paint-order:stroke markers fill"
         id="path1081" />
      <path
         d="m 243.51705,499.2099 0.0181,1.17917 q -1.41501,1.50572 -2.79373,2.10437 -1.37872,0.59866 -3.24726,0.59866 -2.0318,0 -3.6645,-1.05219 -1.6327,-1.07032 -2.52162,-3.01142 -0.87077,-1.9411 -0.87077,-3.80963 0,-2.04995 1.05218,-3.86406 1.07033,-1.83225 2.81187,-2.72117 1.75969,-0.90705 4.4083,-0.90705 2.53975,0 3.86405,0.87077 0.74379,0.50795 0.74379,1.30616 0,0.58051 -0.38097,0.96148 -0.38096,0.38096 -0.97962,0.38096 -0.90705,0 -1.99552,-1.12475 -0.67122,-0.68936 -1.21545,-0.94334 -0.54424,-0.27211 -1.21546,-0.27211 -1.61456,0 -2.68488,1.3243 -1.48757,1.88668 -1.48757,4.73483 0,2.93886 1.52385,4.68041 1.52385,1.74154 3.55566,1.74154 1.41501,0 2.50347,-0.45352 1.10661,-0.47167 2.57604,-1.72341 z"
         style="font-style:normal;font-variant:normal;font-weight:normal;font-stretch:normal;font-size:37.153px;font-family:Garamond;-inkscape-font-specification:'Garamond, Normal';font-variant-ligatures:normal;font-variant-caps:normal;font-variant-numeric:normal;font-variant-east-asian:normal;stroke:#ffffff;stroke-width:1.6;stroke-miterlimit:4;stroke-dasharray:none;stroke-opacity:1;paint-order:stroke markers fill"
         id="path1083" />
      <path
         d="m 244.98648,502.52972 -0.0363,-0.52609 q 0.14513,-0.10884 0.27211,-0.12699 0.12699,-0.0363 0.90706,-0.0907 0.79821,-0.0544 0.99776,-0.34468 0.19955,-0.3084 0.19955,-2.48534 l 0.0363,-7.16573 -0.0363,-1.26988 q 0,-0.16327 0.0363,-1.21546 0.0363,-0.48981 0.0363,-1.17917 l -0.0726,-3.15655 0.0181,-2.75745 q 0,-0.99776 -0.29025,-1.26988 -0.27212,-0.29026 -1.97739,-0.52609 v -0.2177 q 0,-0.10884 0.0181,-0.3084 1.03404,-0.21769 1.83225,-0.54423 0.41724,-0.18141 2.12251,-1.12475 h 0.56237 q -0.0181,0.41725 -0.0181,0.50795 v 1.57828 l -0.0181,0.78007 0.0544,1.43315 -0.0181,2.15879 0.0181,3.59194 -0.0544,4.46271 v 1.37873 q 0,0.25397 0.0181,0.7075 l 0.19955,0.0181 q 0.6168,0 1.25174,-0.45353 2.84816,-2.0318 3.5738,-2.75744 0.72564,-0.74379 0.72564,-1.07033 0,-0.19955 -0.23583,-0.50795 -0.54423,-0.29026 -1.21545,-0.39911 -0.19956,-0.0363 -0.43539,-0.0907 -0.32654,-0.0907 -0.54423,-0.12699 l -0.0363,-0.18141 q 0,-0.12699 0.0907,-0.36282 2.86629,-0.10885 4.9888,-0.10885 1.19732,0 2.5579,0.0544 v 0.23584 q 0,0.12699 -0.0907,0.32654 -0.27212,0.0544 -0.85264,0.16327 -1.12475,0.18141 -1.70526,0.50795 -1.39687,0.74378 -2.88444,2.08623 -0.88891,0.79821 -1.54199,1.34244 l -0.65308,0.56237 q 0.0726,0.12699 0.23583,0.3084 0.0726,0.0726 0.29026,0.32654 0.21769,0.25398 0.78007,0.85264 1.95924,2.06808 2.90258,3.19283 0.30839,0.36282 0.68936,0.79821 1.41501,1.57828 1.65084,1.75969 0.50795,0.32654 1.50571,0.50795 0.47167,0.0907 0.81635,0.16327 0.0726,0.21769 0.0726,0.34468 l -0.0181,0.18141 q -1.28802,-0.10884 -1.8504,-0.10884 h -0.32654 l -5.04323,0.14512 q -0.29026,0.0363 -0.3991,0.0363 -0.18141,0 -0.38097,-0.0726 -0.0544,-0.14513 -0.0544,-0.25397 v -0.12699 q 0.10885,-0.16327 0.19955,-0.19955 1.79597,-0.14513 2.08623,-0.23584 0.16327,-0.0363 0.3084,-0.19955 0,-0.3084 -0.52609,-0.99776 -0.52609,-0.68936 -2.63046,-3.02957 -1.34245,-1.48757 -1.74155,-1.7234 -0.38096,-0.25398 -1.07033,-0.25398 h -0.68936 q -0.0726,0.65308 -0.0726,2.99328 0,2.17694 0.36282,2.79374 0.19955,0.34468 0.94334,0.43538 0.74378,0.0907 0.96148,0.27212 0.14513,0.10885 0.18141,0.50795 -1.08847,-0.0181 -1.83225,-0.0181 -1.19732,0 -2.61233,0.0544 -0.85263,0.0363 -1.34244,0.0363 -0.36282,0 -1.19731,-0.0181 z"
         style="font-style:normal;font-variant:normal;font-weight:normal;font-stretch:normal;font-size:37.153px;font-family:Garamond;-inkscape-font-specification:'Garamond, Normal';font-variant-ligatures:normal;font-variant-caps:normal;font-variant-numeric:normal;font-variant-east-asian:normal;stroke:#ffffff;stroke-width:1.6;stroke-miterlimit:4;stroke-dasharray:none;stroke-opacity:1;paint-order:stroke markers fill"
         id="path1085" />
      <path
         d="m 263.59926,501.06029 q 0,-0.79821 0.58051,-1.39686 0.59866,-0.59866 1.37873,-0.59866 0.76193,0 1.28802,0.56238 0.52609,0.56237 0.52609,1.415 0,0.85264 -0.56237,1.43315 -0.54424,0.58052 -1.32431,0.58052 -0.76192,0 -1.3243,-0.58052 -0.56237,-0.59866 -0.56237,-1.41501 z"
         style="font-style:normal;font-variant:normal;font-weight:normal;font-stretch:normal;font-size:37.153px;font-family:Garamond;-inkscape-font-specification:'Garamond, Normal';font-variant-ligatures:normal;font-variant-caps:normal;font-variant-numeric:normal;font-variant-east-asian:normal;stroke:#ffffff;stroke-width:1.6;stroke-miterlimit:4;stroke-dasharray:none;stroke-opacity:1;paint-order:stroke markers fill"
         id="path1087" />
      <path
         d="m 272.18001,497.92188 q 0.67122,1.72341 1.0159,2.23136 0.68936,1.03404 1.65084,1.61456 0.96148,0.56237 2.08623,0.56237 1.03404,0 2.04994,-0.88891 0.72565,-0.67122 0.72565,-1.56014 0,-1.17917 -0.85263,-2.17693 -0.85264,-0.97962 -3.24726,-1.86854 -2.37649,-0.90705 -3.19284,-1.92295 -0.81635,-1.01591 -0.81635,-2.32207 0,-1.23359 0.67122,-2.17693 0.67122,-0.94334 1.8504,-1.41501 1.17917,-0.48981 2.17693,-0.48981 1.28802,0 2.30392,0.19955 1.03404,0.19956 1.77783,0.6168 0.14513,0.9252 0.23583,2.72117 l 0.0363,0.58052 q -0.23584,0.0181 -0.39911,0.0181 h -0.25397 q -0.54424,-1.50572 -1.66899,-2.37649 -1.1066,-0.88891 -2.19507,-0.88891 -1.08847,0 -1.75969,0.67122 -0.67122,0.65308 -0.67122,1.7234 0,0.81635 0.54423,1.45129 0.54424,0.63494 2.53976,1.45129 2.01366,0.81635 2.92072,1.52385 0.9252,0.68937 1.36058,1.68713 0.43539,0.99776 0.43539,1.90481 0,1.25174 -0.83449,2.34021 -0.81635,1.08847 -2.06809,1.52385 -1.23359,0.45353 -2.21322,0.45353 -2.30392,0 -4.24502,-0.85263 -0.18141,-0.14513 -0.19955,-0.54424 0,-0.16327 -0.0363,-0.52609 -0.29026,-2.44905 -0.29026,-2.90258 0,-0.21769 0.0907,-0.29025 0.0907,-0.0726 0.47167,-0.0726 z"
         style="font-style:normal;font-variant:normal;font-weight:normal;font-stretch:normal;font-size:37.153px;font-family:Garamond;-inkscape-font-specification:'Garamond, Normal';font-variant-ligatures:normal;font-variant-caps:normal;font-variant-numeric:normal;font-variant-east-asian:normal;stroke:#ffffff;stroke-width:1.6;stroke-miterlimit:4;stroke-dasharray:none;stroke-opacity:1;paint-order:stroke markers fill"
         id="path1089" />
      <path
         d="m 285.67699,480.2343 q 0,-0.59866 0.45353,-1.03405 0.47167,-0.43538 1.12475,-0.43538 0.67122,0 1.17917,0.48981 0.50795,0.48981 0.50795,1.05218 0,0.56237 -0.50795,1.07033 -0.50795,0.48981 -1.17917,0.48981 -0.67122,0 -1.12475,-0.45353 -0.45353,-0.45353 -0.45353,-1.17917 z m -1.52385,9.39709 0.0181,-0.52609 q 1.17917,-0.34468 1.26988,-0.3991 0.65308,-0.29026 1.36058,-0.88892 0.72564,-0.59866 1.21545,-1.34244 0.2177,-0.0363 0.34468,-0.0363 l 0.2177,0.0181 q 0.0726,0.87077 0.0726,1.26988 0,0.0907 -0.0363,0.81635 v 0.96147 l 0.0181,5.22465 -0.0544,5.53303 q -0.0181,0.67123 0.21769,0.94334 0.23584,0.25398 1.39687,0.58052 0.72564,0.19955 1.08846,0.34468 0.0544,0.12699 0.0544,0.21769 0,0.10885 -0.0907,0.27212 -0.7075,-0.0181 -1.81411,-0.0907 -1.50571,-0.12698 -1.99552,-0.12698 -0.23584,0 -2.90258,0.0907 -0.54423,0.0181 -1.05218,0.0907 -0.0907,0 -0.29026,-0.0544 -0.0907,-0.12698 -0.0907,-0.21769 0,-0.25397 0.34468,-0.3991 0.0726,-0.0363 1.8504,-0.41725 0.58051,-0.10885 0.76192,-0.36282 0.3084,-0.38096 0.3084,-1.21546 0.0363,-1.39686 0.0363,-7.65555 0,-1.25173 -0.10884,-1.56013 -0.0907,-0.2177 -0.48981,-0.48981 -0.38097,-0.29026 -1.65084,-0.58052 z"
         style="font-style:normal;font-variant:normal;font-weight:normal;font-stretch:normal;font-size:37.153px;font-family:Garamond;-inkscape-font-specification:'Garamond, Normal';font-variant-ligatures:normal;font-variant-caps:normal;font-variant-numeric:normal;font-variant-east-asian:normal;stroke:#ffffff;stroke-width:1.6;stroke-miterlimit:4;stroke-dasharray:none;stroke-opacity:1;paint-order:stroke markers fill"
         id="path1091" />
      <path
         d="m 292.33479,501.89479 q 0.29026,-0.19956 0.79821,-0.27212 0.72564,-0.0907 1.12475,-0.29026 0.32654,-0.27212 0.43539,-0.78007 0.12698,-0.65308 0.12698,-4.5897 0,-3.86406 -0.23583,-4.98881 -0.39911,-0.25397 -1.03404,-0.3991 -0.19956,-0.0363 -0.8345,-0.19955 v -0.59866 q 1.07033,-0.3084 1.72341,-0.79821 0.67122,-0.48981 1.85039,-1.95924 h 0.10885 q 0.10885,0 0.34468,-0.0181 0.14513,0.0181 0.23584,0.0907 l -0.0181,2.06808 q 0,0.63494 0.0363,1.36059 1.9411,-1.75969 3.48309,-2.46719 1.05219,-0.47167 2.37649,-0.47167 1.57827,0 2.50347,0.59865 0.9252,0.59866 1.75969,2.1588 1.61456,-1.59642 2.92072,-2.23136 1.3243,-0.63494 2.66674,-0.63494 2.03181,0 3.33797,1.3243 1.28801,1.34244 1.3243,3.93662 v 1.50572 l 0.0181,1.65084 -0.0181,4.24502 q -0.0181,0.74378 0.32654,1.12475 0.14513,0.0544 1.1066,0.32654 0.59866,0.16327 0.70751,0.25397 0.10884,0.0907 0.10884,0.25398 0,0.19955 -0.10884,0.47167 h -0.12699 l -1.83225,-0.10885 q -0.32654,-0.0181 -1.03405,-0.0181 -0.87077,0 -2.4309,0.0726 h -0.9252 q -0.19955,0 -0.78007,0.0181 -0.0181,-0.16327 -0.0181,-0.29025 0,-0.14513 0.12699,-0.36283 0.48981,-0.21769 1.34244,-0.34468 0.85263,-0.14513 1.05218,-0.48981 0.2177,-0.36282 0.2177,-2.83001 0,-5.35163 -0.12699,-6.20426 -0.21769,-1.36059 -1.16103,-2.12251 -0.9252,-0.78007 -2.3402,-0.78007 -1.08847,0 -2.12252,0.58052 -1.03404,0.56237 -2.0318,1.70526 l -0.0181,0.43539 v 2.77559 l -0.0726,2.15879 q 0,3.30168 0.0544,3.75521 0.0726,0.45353 0.3084,0.67122 0.25397,0.19955 1.43314,0.36282 0.5261,0.0726 0.81635,0.14513 0.2177,0.18141 0.2177,0.47167 0,0.23584 -0.16327,0.32654 h -0.3084 l -0.90706,-0.0181 h -5.27906 l -1.45129,0.0181 q -0.0363,-0.27211 -0.0363,-0.3991 l 0.0181,-0.2177 q 0.3991,-0.21769 1.48757,-0.41724 0.56238,-0.0907 1.16103,-0.3084 0.10885,-0.0907 0.16327,-0.23583 0.0907,-0.25398 0.12699,-1.45129 l 0.0907,-2.10437 -0.0363,-2.37649 0.0181,-1.3243 q 0,-2.23136 -0.90705,-3.24726 -0.90706,-1.03404 -2.28578,-1.03404 -1.28802,0 -2.59418,0.63494 -1.28802,0.63493 -2.14065,1.70526 -0.0181,0.50795 -0.0181,0.9252 l 0.0726,6.09541 q 0.0181,1.99552 0.21769,2.28578 0.2177,0.27212 0.94334,0.38097 1.16103,0.16327 1.50571,0.3991 0.16327,0.10885 0.16327,0.32654 0,0.14513 -0.0181,0.34468 -2.06808,-0.14513 -2.77559,-0.14513 -0.72564,0 -1.30616,0.0181 l -0.90705,0.0544 h -0.56238 l -2.0318,0.0726 q -0.0363,-0.12699 -0.0363,-0.21769 0,-0.0907 0.0726,-0.36282 z"
         style="font-style:normal;font-variant:normal;font-weight:normal;font-stretch:normal;font-size:37.153px;font-family:Garamond;-inkscape-font-specification:'Garamond, Normal';font-variant-ligatures:normal;font-variant-caps:normal;font-variant-numeric:normal;font-variant-east-asian:normal;stroke:#ffffff;stroke-width:1.6;stroke-miterlimit:4;stroke-dasharray:none;stroke-opacity:1;paint-order:stroke markers fill"
         id="path1093" />
      <path
         d="m 320.70748,511.99939 q -0.0181,-0.19956 -0.0181,-0.36283 0,-0.12698 0.0363,-0.3084 l 1.81411,-0.36282 q 0.43539,-0.21769 0.70751,-0.52609 0.0907,-0.32654 0.0907,-0.65308 0,-2.79373 -0.14513,-10.64883 l -0.0544,-6.63965 q -0.0363,-1.57828 -0.19955,-1.99552 -0.0907,-0.2177 -0.27212,-0.34469 -0.45353,-0.34468 -1.81411,-0.58051 l 0.10885,-0.54423 q 1.95924,-0.8345 2.61232,-1.28802 0.67122,-0.47167 1.26987,-1.30616 l 0.2177,-0.0544 q 0.12698,0 0.36282,0.10885 -0.0181,1.14289 -0.0181,1.50571 l 0.0181,1.99552 q 1.34244,-1.0159 2.79373,-1.50571 1.45129,-0.50795 3.01143,-0.50795 2.79373,0 4.71668,1.97738 1.92296,1.95924 1.92296,5.06137 0,2.30392 -1.08846,4.13618 -1.07033,1.83225 -2.97515,2.73931 -1.88667,0.90705 -3.80963,0.90705 -1.6327,0 -3.73707,-0.88891 -0.34468,-0.14513 -0.6168,-0.25398 -0.0363,1.45129 -0.0363,2.57604 0,5.6056 0.3084,6.27682 0.16327,0.36283 1.0159,0.43539 1.45129,0.10885 1.92296,0.41725 0.27212,0.16327 0.36282,0.65308 l -1.79597,0.0363 -1.6327,-0.0363 -2.72117,0.0181 z m 4.73483,-20.75344 q -0.0363,0.25398 -0.0363,0.47167 0,6.47638 0.12699,7.25645 0.25397,1.43314 1.0159,2.01366 1.17917,0.9252 3.37425,0.9252 2.26763,0 3.82777,-1.56014 1.56014,-1.57828 1.56014,-4.08175 0,-3.01142 -1.65085,-4.77111 -1.65084,-1.75969 -4.35386,-1.75969 -1.14289,0 -2.10437,0.38096 -0.96148,0.36282 -1.75969,1.12475 z"
         style="font-style:normal;font-variant:normal;font-weight:normal;font-stretch:normal;font-size:37.153px;font-family:Garamond;-inkscape-font-specification:'Garamond, Normal';font-variant-ligatures:normal;font-variant-caps:normal;font-variant-numeric:normal;font-variant-east-asian:normal;stroke:#ffffff;stroke-width:1.6;stroke-miterlimit:4;stroke-dasharray:none;stroke-opacity:1;paint-order:stroke markers fill"
         id="path1095" />
      <path
         d="m 340.15476,480.05288 v -0.3991 q 0.50795,-0.16327 1.12475,-0.34468 0.90706,-0.29026 2.68489,-0.88892 h 0.85263 q 0.0181,0.87078 0.0181,0.99777 0,14.89385 -0.0907,17.76015 -0.0544,1.68712 -0.0544,1.79597 0,2.0318 0.16327,2.26764 0.2177,0.32654 1.3243,0.45352 1.12475,0.12699 1.3243,0.25398 0.14513,0.0726 0.14513,0.25397 0,0.19956 -0.0907,0.29026 -0.0726,0.0726 -0.29026,0.0726 -0.12699,0 -1.90482,-0.0544 l -2.37648,-0.0726 -3.04771,0.12699 q -0.29026,0.0181 -0.43539,-0.10885 -0.10884,-0.0907 -0.10884,-0.25398 0,-0.18141 0.10884,-0.25397 0.12699,-0.0907 1.30616,-0.29026 1.19732,-0.19955 1.36059,-0.32654 0.18141,-0.14513 0.23583,-0.6168 0.0726,-0.65308 0.0726,-3.68264 l -0.0181,-4.17246 0.0544,-4.31758 -0.0181,-4.31759 0.0544,-2.12251 q 0,-0.63494 -0.19955,-0.90706 -0.19955,-0.29025 -0.85263,-0.56237 -0.97962,-0.3991 -1.34245,-0.58052 z"
         style="font-style:normal;font-variant:normal;font-weight:normal;font-stretch:normal;font-size:37.153px;font-family:Garamond;-inkscape-font-specification:'Garamond, Normal';font-variant-ligatures:normal;font-variant-caps:normal;font-variant-numeric:normal;font-variant-east-asian:normal;stroke:#ffffff;stroke-width:1.6;stroke-miterlimit:4;stroke-dasharray:none;stroke-opacity:1;paint-order:stroke markers fill"
         id="path1097" />
      <path
         d="m 350.29564,480.2343 q 0,-0.59866 0.45353,-1.03405 0.47167,-0.43538 1.12475,-0.43538 0.67122,0 1.17917,0.48981 0.50795,0.48981 0.50795,1.05218 0,0.56237 -0.50795,1.07033 -0.50795,0.48981 -1.17917,0.48981 -0.67122,0 -1.12475,-0.45353 -0.45353,-0.45353 -0.45353,-1.17917 z m -1.52385,9.39709 0.0181,-0.52609 q 1.17917,-0.34468 1.26988,-0.3991 0.65308,-0.29026 1.36058,-0.88892 0.72565,-0.59866 1.21546,-1.34244 0.21769,-0.0363 0.34468,-0.0363 l 0.21769,0.0181 q 0.0726,0.87077 0.0726,1.26988 0,0.0907 -0.0363,0.81635 v 0.96147 l 0.0181,5.22465 -0.0544,5.53303 q -0.0181,0.67123 0.21769,0.94334 0.23584,0.25398 1.39687,0.58052 0.72564,0.19955 1.08847,0.34468 0.0544,0.12699 0.0544,0.21769 0,0.10885 -0.0907,0.27212 -0.7075,-0.0181 -1.81411,-0.0907 -1.50571,-0.12698 -1.99552,-0.12698 -0.23583,0 -2.90258,0.0907 -0.54423,0.0181 -1.05218,0.0907 -0.0907,0 -0.29026,-0.0544 -0.0907,-0.12698 -0.0907,-0.21769 0,-0.25397 0.34469,-0.3991 0.0726,-0.0363 1.85039,-0.41725 0.58051,-0.10885 0.76193,-0.36282 0.30839,-0.38096 0.30839,-1.21546 0.0363,-1.39686 0.0363,-7.65555 0,-1.25173 -0.10885,-1.56013 -0.0907,-0.2177 -0.48981,-0.48981 -0.38096,-0.29026 -1.65084,-0.58052 z"
         style="font-style:normal;font-variant:normal;font-weight:normal;font-stretch:normal;font-size:37.153px;font-family:Garamond;-inkscape-font-specification:'Garamond, Normal';font-variant-ligatures:normal;font-variant-caps:normal;font-variant-numeric:normal;font-variant-east-asian:normal;stroke:#ffffff;stroke-width:1.6;stroke-miterlimit:4;stroke-dasharray:none;stroke-opacity:1;paint-order:stroke markers fill"
         id="path1099" />
      <path
         d="m 362.90371,488.3978 q 4.51714,0.10884 4.8074,0.10884 0.0363,0.39911 0.0363,0.59866 0,0.23583 -0.0544,0.7075 -0.45353,0.0726 -0.9252,0.0726 h -0.68936 q -2.2495,0 -3.12027,0.16327 -0.0363,0.41724 -0.0363,0.63494 0,0.0907 0.0181,0.27211 0.0907,2.84816 0.0907,3.44682 l -0.0363,4.66226 q 0,1.03404 0.34468,1.72341 0.19955,0.3991 0.74379,0.63494 0.34468,0.16327 1.66898,0.32654 0.99776,0.14513 1.34244,0.19955 0,0.38096 -0.0544,0.58051 l -0.25398,0.0181 q -0.87077,-0.0544 -2.26764,-0.0907 l -1.34244,-0.0544 -4.57156,0.14513 h -0.59866 l -0.0181,-0.56238 q 0.27212,-0.0544 0.39911,-0.0907 1.56013,-0.29026 2.01366,-0.65308 0.18141,-0.14513 0.25397,-0.5261 0.0363,-0.21769 0.0363,-2.0318 0,-5.17022 -0.0907,-8.25421 -0.47167,-0.14513 -1.45129,-0.18141 -0.36282,0 -1.14289,-0.0726 l -0.0363,-0.19956 q 0,-0.21769 0.18141,-0.36282 0.0726,-0.0726 1.52385,-0.76193 0.56238,-0.25397 0.79821,-0.63493 0.12699,-0.19956 0.14513,-0.8345 0.0181,-0.29025 0.10885,-0.99776 0.21769,-1.86853 0.34468,-2.30392 0.32654,-1.21545 1.08847,-2.41277 0.78007,-1.21545 1.86853,-2.12251 0.79821,-0.65308 1.79597,-0.97962 1.0159,-0.32654 2.30392,-0.32654 1.72341,0 2.52162,0.56238 0.54423,0.38096 0.54423,0.97962 0,0.50795 -0.38096,0.87077 -0.38097,0.36282 -0.94334,0.36282 -0.68936,0 -1.48757,-0.34468 -1.50571,-0.59865 -1.70527,-0.65308 -0.34468,-0.0907 -0.7075,-0.0907 -0.99776,0 -1.83225,0.63494 -0.81635,0.63493 -1.03404,1.56013 -0.2177,0.9252 -0.2177,4.15432 0,1.16103 0.0181,2.12251 z"
         style="font-style:normal;font-variant:normal;font-weight:normal;font-stretch:normal;font-size:37.153px;font-family:Garamond;-inkscape-font-specification:'Garamond, Normal';font-variant-ligatures:normal;font-variant-caps:normal;font-variant-numeric:normal;font-variant-east-asian:normal;stroke:#ffffff;stroke-width:1.6;stroke-miterlimit:4;stroke-dasharray:none;stroke-opacity:1;paint-order:stroke markers fill"
         id="path1101" />
      <path
         d="m 370.79509,480.2343 q 0,-0.59866 0.45353,-1.03405 0.47167,-0.43538 1.12475,-0.43538 0.67122,0 1.17917,0.48981 0.50795,0.48981 0.50795,1.05218 0,0.56237 -0.50795,1.07033 -0.50795,0.48981 -1.17917,0.48981 -0.67122,0 -1.12475,-0.45353 -0.45353,-0.45353 -0.45353,-1.17917 z m -1.52385,9.39709 0.0181,-0.52609 q 1.17917,-0.34468 1.26988,-0.3991 0.65308,-0.29026 1.36058,-0.88892 0.72565,-0.59866 1.21546,-1.34244 0.21769,-0.0363 0.34468,-0.0363 l 0.21769,0.0181 q 0.0726,0.87077 0.0726,1.26988 0,0.0907 -0.0363,0.81635 v 0.96147 l 0.0181,5.22465 -0.0544,5.53303 q -0.0181,0.67123 0.21769,0.94334 0.23584,0.25398 1.39687,0.58052 0.72564,0.19955 1.08847,0.34468 0.0544,0.12699 0.0544,0.21769 0,0.10885 -0.0907,0.27212 -0.70751,-0.0181 -1.81412,-0.0907 -1.50571,-0.12698 -1.99552,-0.12698 -0.23583,0 -2.90258,0.0907 -0.54423,0.0181 -1.05218,0.0907 -0.0907,0 -0.29026,-0.0544 -0.0907,-0.12698 -0.0907,-0.21769 0,-0.25397 0.34468,-0.3991 0.0726,-0.0363 1.85039,-0.41725 0.58052,-0.10885 0.76193,-0.36282 0.3084,-0.38096 0.3084,-1.21546 0.0363,-1.39686 0.0363,-7.65555 0,-1.25173 -0.10885,-1.56013 -0.0907,-0.2177 -0.48981,-0.48981 -0.38096,-0.29026 -1.65084,-0.58052 z"
         style="font-style:normal;font-variant:normal;font-weight:normal;font-stretch:normal;font-size:37.153px;font-family:Garamond;-inkscape-font-specification:'Garamond, Normal';font-variant-ligatures:normal;font-variant-caps:normal;font-variant-numeric:normal;font-variant-east-asian:normal;stroke:#ffffff;stroke-width:1.6;stroke-miterlimit:4;stroke-dasharray:none;stroke-opacity:1;paint-order:stroke markers fill"
         id="path1103" />
      <path
         d="m 391.09501,492.95122 -7.27459,0.0544 h -1.37872 q -0.83449,0 -1.70526,0.0726 -0.16327,0.54424 -0.16327,0.74379 l 0.0181,0.18141 v 0.18141 l -0.0181,0.88892 q 0,1.1066 0.68936,2.72116 0.7075,1.59642 1.99552,2.44905 1.30616,0.8345 3.24726,0.88892 1.03404,-0.0544 1.65084,-0.25398 0.6168,-0.19955 1.74155,-0.92519 l 1.30616,-1.07033 0.10884,0.72564 q 0,0.12699 -0.0181,0.27212 -0.81635,1.03405 -2.06808,1.81411 -1.25174,0.78007 -2.53976,1.14289 -0.6168,0.16327 -2.0318,0.16327 -1.28802,0 -2.53976,-0.52609 -1.85039,-0.79821 -2.92072,-2.5579 -1.05218,-1.77783 -1.05218,-4.29944 0,-0.79821 0.29025,-2.04995 0.3084,-1.25173 1.08847,-2.66674 0.52609,-0.96148 1.28802,-1.57828 1.08847,-0.87077 1.90482,-1.21545 1.17917,-0.48981 2.7393,-0.48981 1.68713,0 2.75745,0.6168 1.45129,0.81635 2.1588,2.10437 0.72564,1.28802 0.72564,2.35834 z m -10.12274,-0.65308 h 0.85263 q 0.9252,0 5.5149,-0.29026 0.72564,-0.0363 0.88891,-0.14513 0.32654,-0.34468 0.32654,-0.6168 0,-0.56237 -0.36282,-1.26988 -0.36282,-0.72564 -1.12475,-1.1066 -0.74378,-0.39911 -1.74154,-0.39911 -2.10437,0 -3.37425,1.57828 -0.97962,1.19731 -0.97962,2.2495 z"
         style="font-style:normal;font-variant:normal;font-weight:normal;font-stretch:normal;font-size:37.153px;font-family:Garamond;-inkscape-font-specification:'Garamond, Normal';font-variant-ligatures:normal;font-variant-caps:normal;font-variant-numeric:normal;font-variant-east-asian:normal;stroke:#ffffff;stroke-width:1.6;stroke-miterlimit:4;stroke-dasharray:none;stroke-opacity:1;paint-order:stroke markers fill"
         id="path1105" />
      <path
         d="m 405.44463,489.35928 0.0181,-0.5261 -0.0181,-2.12251 0.0181,-4.00918 q 0,-1.66899 -0.36282,-2.12251 -0.36283,-0.45353 -2.12251,-0.9252 -0.12699,-0.0363 -0.39911,-0.10885 v -0.19955 q 0,-0.18141 0.0363,-0.3991 2.46719,-0.25398 4.24502,-0.85264 l 0.9252,-0.0181 q 0.0726,1.2336 0.0726,2.75745 l -0.0726,6.98433 0.12699,7.87324 -0.0544,4.1906 q 0,1.28802 0.18141,1.45129 0.36282,0.36282 1.59641,0.38096 0.25398,0 0.68937,0.0363 v 0.32654 q 0,0.12698 -0.0181,0.27211 -0.56238,0.12699 -1.16104,0.23584 l -2.63046,0.50795 q -0.58051,0.10885 -0.92519,0.10885 v -1.74155 q -0.3084,0.0907 -0.96148,0.36282 -2.83002,1.19731 -5.2065,1.19731 -1.43315,0 -2.92072,-0.92519 -1.48757,-0.94334 -2.28578,-2.61232 -0.79821,-1.66899 -0.79821,-3.41053 0,-1.56014 0.52609,-2.97514 0.52609,-1.43315 1.37873,-2.37649 0.54423,-0.6168 1.54199,-1.21546 0.99776,-0.61679 1.65084,-0.78006 1.61456,-0.41725 2.15879,-0.41725 2.44905,0 4.02733,0.72565 0.48981,0.23583 0.74379,0.32654 z m 0.0181,11.2112 q 0.0726,-1.21545 0.0726,-5.00694 0,-3.21098 -0.3084,-4.04547 -0.29025,-0.85263 -1.48757,-1.59642 -1.19731,-0.76193 -2.68488,-0.76193 -2.08623,0 -3.53752,1.61456 -1.45129,1.61456 -1.45129,4.77112 0,2.77559 1.56014,4.42643 1.57827,1.65084 3.91848,1.65084 1.34244,0 2.44905,-0.36282 1.10661,-0.36283 1.46943,-0.68937 z"
         style="font-style:normal;font-variant:normal;font-weight:normal;font-stretch:normal;font-size:37.153px;font-family:Garamond;-inkscape-font-specification:'Garamond, Normal';font-variant-ligatures:normal;font-variant-caps:normal;font-variant-numeric:normal;font-variant-east-asian:normal;stroke:#ffffff;stroke-width:1.6;stroke-miterlimit:4;stroke-dasharray:none;stroke-opacity:1;paint-order:stroke markers fill"
         id="path1107" />
    </g>
  </g>
  <g
     inkscape:groupmode="layer"
     id="g1028"
     inkscape:label="Abstraction (path)"
     style="display:inline">
    <g
       id="g1065"
       style="stroke:#ffffff;stroke-opacity:1;stroke-width:2;stroke-miterlimit:4;stroke-dasharray:none;paint-order:stroke markers fill">
      <g
         aria-label="ABSTRACTION"
         id="text1026"
         style="font-style:normal;font-variant:normal;font-weight:normal;font-stretch:normal;font-size:81.7366px;line-height:125%;font-family:Garamond;-inkscape-font-specification:'Garamond, Normal';font-variant-ligatures:normal;font-variant-caps:normal;font-variant-numeric:normal;font-variant-east-asian:normal;text-align:start;letter-spacing:0px;word-spacing:0px;text-anchor:start;display:inline;fill:#000000;fill-opacity:1;stroke:#ffffff;stroke-width:2;stroke-miterlimit:4;stroke-dasharray:none;stroke-opacity:1;paint-order:stroke markers fill">
        <path
           d="m 163.78941,458.01577 q 0.55875,-0.31928 0.99776,-0.31928 h 0.91794 q 0.27937,0 0.95785,-0.0399 3.07311,-0.27937 3.63185,-0.55875 1.39687,-0.7583 2.39463,-2.63409 2.07534,-4.07086 4.66952,-11.53412 1.23723,-3.55203 1.55651,-4.31033 0.99776,-2.39462 1.9157,-5.02871 l 3.75158,-10.49645 q 0.87803,-2.47445 4.23051,-11.33457 0.83812,-2.23498 2.03543,-5.98657 l 1.15741,-0.0798 1.39686,0.0399 q 1.71615,3.39239 3.0332,7.30362 0.71839,2.07534 2.35471,6.18612 l 6.06639,16.40319 3.23275,8.90003 q 2.55427,7.58299 3.35248,9.33905 0.79821,1.71615 1.47668,2.27489 0.19956,0.15964 1.47669,0.47893 1.31705,0.31928 1.83588,0.47892 1.83588,0.51884 2.55427,0.87803 0.15964,0.43902 0.15964,0.67848 0,0.19955 -0.11973,0.59866 -1.27713,0.0399 -1.79597,0.0399 -2.03543,0 -7.18388,-0.11973 l -3.99105,-0.11973 -4.82916,0.0798 q -0.47893,0 -0.99776,-0.0399 -0.47893,-0.0798 -0.83812,-0.0798 h -0.87803 q -0.43902,-0.0399 -0.79821,-0.23946 0,-0.55874 0.19955,-1.07758 0.47893,-0.23946 0.87803,-0.27937 l 4.1906,-0.27938 q 1.63633,-0.0798 2.47445,-0.43901 0.23946,-0.71839 0.23946,-1.07758 0,-0.71839 -1.03767,-3.71168 -0.71839,-1.99552 -1.27714,-3.79149 -0.51883,-1.79597 -4.2305,-11.81349 -1.63633,-0.27937 -2.87356,-0.27937 l -8.54083,0.0798 -2.51436,-0.0399 q -1.35696,0 -2.99328,0.19955 -0.51884,1.19731 -0.67848,1.71615 l -3.51212,10.97537 q -2.23499,6.26594 -2.23499,6.90451 0,0.35919 0.3592,1.19731 0.83812,0.23947 2.23498,0.43902 l 5.42782,0.47892 q 0.43902,0.3592 0.43902,0.63857 0,0.19955 -0.11973,0.59866 -1.79597,0.0399 -2.75382,0.0399 -3.19284,0 -7.42335,-0.19955 -1.95561,-0.0798 -2.79373,-0.0798 -0.83812,0 -2.91346,0.0798 -1.35696,0.0798 -1.95561,0.0798 -0.95786,0 -2.47445,-0.11974 v -0.23946 q 0,-0.27937 0.15964,-0.7583 z m 19.03728,-23.94627 q 4.27042,0.23947 9.73815,0.23947 3.11302,0 5.46774,-0.19956 -0.39911,-1.5565 -0.91794,-2.91346 -2.59418,-6.94442 -2.87356,-7.66281 l -3.63185,-9.21931 -0.3991,-0.71839 q -0.23947,0.47893 -1.75606,4.11078 -2.55427,6.22603 -3.67176,9.69824 -0.51884,1.55651 -1.07759,3.11301 -0.55874,1.5166 -0.71838,2.15517 -0.11974,0.59865 -0.39911,1.23722 z"
           style="font-style:normal;font-variant:normal;font-weight:normal;font-stretch:normal;font-size:81.7366px;font-family:Garamond;-inkscape-font-specification:'Garamond, Normal';font-variant-ligatures:normal;font-variant-caps:normal;font-variant-numeric:normal;font-variant-east-asian:normal;fill:#031f00;stroke:#ffffff;stroke-width:2;stroke-miterlimit:4;stroke-dasharray:none;stroke-opacity:1;paint-order:stroke markers fill"
           id="path1030" />
        <path
           d="m 220.6618,409.84386 v -1.23722 q 0.67848,-0.15965 1.07759,-0.19956 l 3.75158,-0.19955 q 4.66952,-0.3991 10.45654,-0.63857 2.3148,-0.0798 7.30361,-0.0798 6.78477,0 9.9377,0.99776 4.5897,1.47669 6.82469,4.46997 2.27489,2.95338 2.27489,6.58523 0,5.90675 -8.4211,9.9377 l -0.19955,0.31928 q 4.31032,1.15741 7.06415,3.23275 2.75382,2.07534 4.2305,5.06863 1.07759,2.19507 1.07759,5.7471 0,5.94666 -5.42783,10.61618 -5.38791,4.62962 -14.88659,4.62962 h -5.94666 l -6.02648,0.19955 q -7.98209,0.0798 -9.33904,0.0798 -1.39687,0 -2.75383,-0.11973 v -0.43902 q 0,-0.47892 0.19956,-0.67848 0.23946,-0.23946 0.91794,-0.3991 4.9888,-1.03767 5.62737,-1.39687 0.67848,-0.3991 0.91794,-1.23722 0.47893,-1.59642 0.47893,-8.22155 0,-0.59866 -0.0399,-1.5166 -0.0798,-2.674 -0.0798,-3.0731 v -4.15069 q 0,-10.53636 -0.23946,-18.39872 l -0.0399,-8.022 -0.0399,-0.99776 q -3.39239,-0.47893 -5.98657,-0.59866 -1.67624,-0.0399 -2.71391,-0.27937 z m 15.84445,20.19469 q 1.99552,0.3991 4.1906,0.3991 8.62066,0 11.69376,-3.79149 3.07311,-3.79149 3.07311,-7.54308 0,-1.67623 -0.55875,-3.39238 -0.51884,-1.75606 -1.9157,-3.15293 -1.35696,-1.39687 -3.39239,-2.07534 -3.47221,-1.15741 -7.10406,-1.15741 -3.39239,0 -6.30585,0.7583 -0.0399,0.83812 -0.0399,1.23723 0,0.3991 0.0798,2.27489 0.0399,1.19732 0.0399,2.39463 l -0.11973,4.82916 0.0399,2.87356 0.27937,5.62737 z m 9.37896,27.1391 q 3.95113,-0.27937 6.62513,-1.67624 1.23723,-0.63856 2.91347,-2.27489 1.71614,-1.67624 2.63409,-3.99105 0.95785,-2.3148 0.95785,-4.46997 0,-1.63632 -0.67848,-4.03095 -0.63857,-2.39463 -2.23499,-4.1906 -1.5565,-1.83588 -4.66952,-2.99328 -3.11301,-1.19732 -6.8646,-1.19732 -7.2637,0 -8.14173,0.27938 -0.0399,0.91794 -0.0399,1.35695 l 0.0399,1.47669 -0.0399,2.99328 v 3.39239 q 0.11973,9.37896 0.43902,11.09511 0.31928,1.71615 2.15516,2.95337 1.87579,1.23722 6.90451,1.27713 z"
           style="font-style:normal;font-variant:normal;font-weight:normal;font-stretch:normal;font-size:81.7366px;font-family:Garamond;-inkscape-font-specification:'Garamond, Normal';font-variant-ligatures:normal;font-variant-caps:normal;font-variant-numeric:normal;font-variant-east-asian:normal;fill:#031f00;stroke:#ffffff;stroke-width:2;stroke-miterlimit:4;stroke-dasharray:none;stroke-opacity:1;paint-order:stroke markers fill"
           id="path1032" />
        <path
           d="m 301.56029,410.04341 q 0.31928,2.63409 0.31928,3.0332 l -0.15964,3.55203 q -0.0798,2.27489 -0.19955,2.91346 -0.35919,0.15964 -0.59866,0.15964 l -0.35919,-0.0798 q -1.27714,-5.58746 -4.35024,-8.14173 -3.03319,-2.55427 -7.42334,-2.55427 -4.5498,0 -7.46326,2.55427 -2.91346,2.55427 -2.91346,5.94666 0,2.59417 2.03543,4.74934 2.03543,2.15516 10.41663,6.46549 6.38567,3.31257 9.13949,5.42782 2.75382,2.07535 4.15069,4.82917 1.39687,2.75382 1.39687,6.14621 0,4.27042 -2.23499,8.022 -2.19507,3.75158 -5.94666,5.66728 -3.75158,1.87579 -9.9377,1.87579 -5.38791,0 -10.33681,-1.71615 -2.91346,-1.03767 -3.55203,-1.67624 -0.63856,-0.63856 -0.63856,-1.35695 0,-0.43902 0.0798,-1.11749 0.55874,-4.70944 0.59865,-7.74263 0.0798,-1.87579 0.27938,-2.19508 0.15964,-0.27937 0.59865,-0.27937 0.3592,0 0.55875,0.27937 0.23946,0.23947 0.31928,0.95785 0.43902,4.90899 4.5498,8.7803 4.07086,3.87132 9.21931,3.87132 3.15293,0 5.78701,-1.31705 2.67401,-1.31704 4.15069,-3.79149 1.5166,-2.51436 1.5166,-4.86907 0,-3.23275 -2.2749,-5.90675 -2.27489,-2.674 -9.13949,-6.22603 -6.8646,-3.59194 -8.93994,-5.22827 -3.35248,-2.674 -5.02872,-5.66728 -1.23722,-2.31481 -1.23722,-5.38792 0,-5.54755 4.39015,-9.37895 4.39015,-3.87132 11.77358,-3.87132 4.07087,0 7.02424,0.91795 2.15516,0.71838 4.43006,2.35471 z"
           style="font-style:normal;font-variant:normal;font-weight:normal;font-stretch:normal;font-size:81.7366px;font-family:Garamond;-inkscape-font-specification:'Garamond, Normal';font-variant-ligatures:normal;font-variant-caps:normal;font-variant-numeric:normal;font-variant-east-asian:normal;fill:#031f00;stroke:#ffffff;stroke-width:2;stroke-miterlimit:4;stroke-dasharray:none;stroke-opacity:1;paint-order:stroke markers fill"
           id="path1034" />
        <path
           d="m 310.4204,414.1941 1.63633,-6.02648 q 0.15964,-1.19731 0.43902,-1.5166 0.27937,-0.35919 0.63856,-0.35919 0.71839,0 1.63633,1.71615 0.67848,1.23722 1.1175,1.59642 0.43901,0.31928 1.27713,0.43901 l 0.3991,-0.0399 1.71615,0.15964 9.41887,0.11973 11.13502,-0.0399 h 3.27265 l 6.18612,-0.11973 q 0.39911,0 0.99776,0.0798 2.71391,0.23947 3.35248,0.23947 0.59866,0 0.95785,-0.39911 0.11973,-0.15964 1.31705,-2.71391 0.51883,-1.1574 1.27713,-1.1574 0.31929,0 0.79821,0.15964 0.19955,0.79821 0.19955,1.43678 l -0.0399,1.59641 0.0399,3.39239 q 0,1.23723 -0.19955,7.98209 0,0.43902 -0.15964,0.79821 -0.43902,0.27937 -0.7583,0.27937 -0.31928,0 -0.55875,-0.27937 -0.23946,-0.31928 -0.59865,-1.87579 -0.79821,-3.59194 -1.99553,-5.14845 -0.7982,-0.99776 -2.3148,-1.43677 -1.47669,-0.43902 -7.14397,-0.43902 -4.54979,0 -6.74487,0.15964 -0.0798,1.59642 -0.0798,2.91347 l 0.31928,24.78439 q 0,1.47668 -0.15964,5.58746 l 0.0399,5.30809 -0.0399,2.95337 q 0,1.39687 0.47893,1.99552 0.47892,0.59866 2.59418,1.15741 3.67176,0.91794 4.90898,1.11749 0.7583,0.0798 1.23723,0.31928 v 1.19732 l -5.66729,-0.15964 q -4.66952,-0.0399 -7.02424,-0.19956 l -5.82692,0.27938 -4.27042,0.23946 q -1.79597,0 -2.19508,-0.0798 l -0.55874,-0.23946 q 0.0798,-0.91794 0.35919,-1.15741 0.27938,-0.27937 1.47669,-0.43901 1.67624,-0.23947 3.95113,-0.83812 2.2749,-0.63857 2.99329,-1.27714 0.3991,-0.35919 0.55874,-1.19731 0.3592,-1.75606 0.3592,-6.90451 v -6.78477 l -0.15964,-14.80678 -0.15965,-3.19284 -0.0399,-10.65609 q -2.51435,-0.27937 -6.42558,-0.27937 -5.7471,0 -6.98433,0.71839 -1.95561,1.11749 -5.82692,6.54531 -1.27714,2.03543 -2.23499,2.03543 l -0.35919,-0.0798 q -0.15964,-0.23946 -0.15964,-0.43901 0,-0.47893 0.63856,-2.87355 0.79821,-3.07311 0.95785,-4.15069 z"
           style="font-style:normal;font-variant:normal;font-weight:normal;font-stretch:normal;font-size:81.7366px;font-family:Garamond;-inkscape-font-specification:'Garamond, Normal';font-variant-ligatures:normal;font-variant-caps:normal;font-variant-numeric:normal;font-variant-east-asian:normal;fill:#031f00;stroke:#ffffff;stroke-width:2;stroke-miterlimit:4;stroke-dasharray:none;stroke-opacity:1;paint-order:stroke markers fill"
           id="path1036" />
        <path
           d="m 361.46588,458.09559 q 5.82693,-0.67847 6.58523,-0.95785 0.51883,-0.19955 0.95785,-1.19731 v -0.43902 q 0,-0.99776 0.31928,-7.22379 0.0798,-1.75606 0.0798,-3.4323 l -0.11973,-4.74934 0.0798,-5.38791 -0.0399,-10.01752 0.0399,-7.18388 q 0.0399,-4.5498 -0.71839,-5.54756 -0.71839,-0.99776 -3.79149,-1.39686 -3.07311,-0.43902 -3.39239,-0.63857 -0.31928,-0.19955 -0.31928,-0.63857 0,-0.27937 0.11973,-0.71838 0.3991,-0.3592 1.83588,-0.39911 0.19955,0 1.07758,-0.0798 0.91794,-0.11973 1.71615,-0.11973 h 3.27266 l 10.49645,-0.11973 q 8.90003,0 12.45206,1.31704 3.59194,1.31705 5.70719,4.46997 2.11526,3.11302 2.11526,6.98433 0,7.34352 -7.70272,11.21484 -1.31705,0.67848 -2.07534,1.19731 1.35695,2.87355 3.79149,6.90451 l 5.06863,8.70048 q 3.03319,4.78925 4.19059,6.02648 1.15741,1.19731 2.79373,1.99552 1.67624,0.79821 5.58747,1.5166 0.0399,0.3991 0.0399,0.63856 0,0.23947 -0.0399,0.59866 -5.46773,0.0798 -12.81126,0.0798 -0.51883,0 -1.43677,-0.0798 -2.83365,-5.42782 -6.66505,-11.93323 l -5.90675,-10.77582 q -1.19731,-1.67624 -1.99552,-2.07534 -0.7583,-0.43902 -2.03543,-0.43902 l -3.39239,0.0399 -1.11749,-0.0399 q -0.11973,1.27714 -0.11973,5.22827 v 13.64938 q -0.0399,0.7583 0.31928,2.11525 0.31928,0.7583 1.07758,1.23723 0.79821,0.43901 4.50988,1.35695 l 1.63633,0.39911 q 0.31929,0.3991 0.31929,1.07758 -1.07759,0.19955 -1.5166,0.19955 -3.59194,0 -5.06863,-0.0798 -0.7583,-0.0399 -1.23722,-0.0399 l -5.42782,0.0798 -5.30809,-0.0399 q -0.3592,0 -3.63186,0.11973 l -0.7982,-0.15964 -0.0798,-0.39911 q 0,-0.35919 0.55875,-0.83812 z m 14.84669,-26.10143 q 1.07758,0.0399 1.59642,0.0399 2.87355,0 6.62513,-0.67848 2.63409,-0.51883 4.27042,-1.67624 1.63633,-1.19731 2.71391,-3.51212 1.11749,-2.3148 1.11749,-4.78925 0,-2.71391 -1.71615,-5.74711 -1.31704,-2.3148 -4.46997,-3.87131 -3.11301,-1.55651 -7.50316,-1.55651 -1.07758,0 -2.79373,0.11973 -0.15964,2.07535 -0.15964,3.19284 l 0.19955,7.46326 -0.0399,3.0731 q 0,3.11301 0.15964,7.94218 z"
           style="font-style:normal;font-variant:normal;font-weight:normal;font-stretch:normal;font-size:81.7366px;font-family:Garamond;-inkscape-font-specification:'Garamond, Normal';font-variant-ligatures:normal;font-variant-caps:normal;font-variant-numeric:normal;font-variant-east-asian:normal;fill:#031f00;stroke:#ffffff;stroke-width:2;stroke-miterlimit:4;stroke-dasharray:none;stroke-opacity:1;paint-order:stroke markers fill"
           id="path1038" />
        <path
           d="m 409.87725,458.01577 q 0.55875,-0.31928 0.99777,-0.31928 h 0.91794 q 0.27937,0 0.95785,-0.0399 3.0731,-0.27937 3.63185,-0.55875 1.39686,-0.7583 2.39462,-2.63409 2.07535,-4.07086 4.66953,-11.53412 1.23722,-3.55203 1.5565,-4.31033 0.99777,-2.39462 1.91571,-5.02871 l 3.75158,-10.49645 q 0.87803,-2.47445 4.23051,-11.33457 0.83812,-2.23498 2.03543,-5.98657 l 1.1574,-0.0798 1.39687,0.0399 q 1.71615,3.39239 3.03319,7.30362 0.71839,2.07534 2.35472,6.18612 l 6.06639,16.40319 3.23274,8.90003 q 2.55427,7.58299 3.35248,9.33905 0.79821,1.71615 1.47669,2.27489 0.19955,0.15964 1.47669,0.47893 1.31704,0.31928 1.83588,0.47892 1.83588,0.51884 2.55426,0.87803 0.15965,0.43902 0.15965,0.67848 0,0.19955 -0.11973,0.59866 -1.27714,0.0399 -1.79597,0.0399 -2.03544,0 -7.18389,-0.11973 l -3.99104,-0.11973 -4.82917,0.0798 q -0.47892,0 -0.99776,-0.0399 -0.47892,-0.0798 -0.83812,-0.0798 h -0.87803 q -0.43901,-0.0399 -0.79821,-0.23946 0,-0.55874 0.19956,-1.07758 0.47892,-0.23946 0.87803,-0.27937 l 4.19059,-0.27938 q 1.63633,-0.0798 2.47445,-0.43901 0.23946,-0.71839 0.23946,-1.07758 0,-0.71839 -1.03767,-3.71168 -0.71839,-1.99552 -1.27713,-3.79149 -0.51884,-1.79597 -4.23051,-11.81349 -1.63633,-0.27937 -2.87355,-0.27937 l -8.54084,0.0798 -2.51436,-0.0399 q -1.35695,0 -2.99328,0.19955 -0.51884,1.19731 -0.67848,1.71615 l -3.51212,10.97537 q -2.23498,6.26594 -2.23498,6.90451 0,0.35919 0.35919,1.19731 0.83812,0.23947 2.23499,0.43902 l 5.42782,0.47892 q 0.43901,0.3592 0.43901,0.63857 0,0.19955 -0.11973,0.59866 -1.79597,0.0399 -2.75382,0.0399 -3.19284,0 -7.42334,-0.19955 -1.95562,-0.0798 -2.79373,-0.0798 -0.83812,0 -2.91347,0.0798 -1.35695,0.0798 -1.95561,0.0798 -0.95785,0 -2.47445,-0.11974 v -0.23946 q 0,-0.27937 0.15964,-0.7583 z m 19.03729,-23.94627 q 4.27042,0.23947 9.73815,0.23947 3.11301,0 5.46773,-0.19956 -0.3991,-1.5565 -0.91794,-2.91346 -2.59418,-6.94442 -2.87355,-7.66281 l -3.63185,-9.21931 -0.39911,-0.71839 q -0.23946,0.47893 -1.75606,4.11078 -2.55427,6.22603 -3.67176,9.69824 -0.51883,1.55651 -1.07758,3.11301 -0.55875,1.5166 -0.71839,2.15517 -0.11973,0.59865 -0.3991,1.23722 z"
           style="font-style:normal;font-variant:normal;font-weight:normal;font-stretch:normal;font-size:81.7366px;font-family:Garamond;-inkscape-font-specification:'Garamond, Normal';font-variant-ligatures:normal;font-variant-caps:normal;font-variant-numeric:normal;font-variant-east-asian:normal;fill:#031f00;stroke:#ffffff;stroke-width:2;stroke-miterlimit:4;stroke-dasharray:none;stroke-opacity:1;paint-order:stroke markers fill"
           id="path1040" />
        <path
           d="m 501.02939,410.44252 q 0.47892,3.0731 0.47892,6.30585 0,0.63856 -0.0399,1.71615 -0.55874,0.11973 -0.83812,0.11973 -0.23946,0 -0.67847,-0.0798 -1.67624,-4.66953 -5.46774,-7.18388 -3.79149,-2.51436 -9.37895,-2.51436 -2.95338,0 -4.98881,0.67848 -3.59194,1.23722 -6.30585,3.43229 -2.71391,2.15517 -4.5897,5.18836 -1.87579,2.99329 -2.99328,7.30362 -1.07759,4.27041 -1.07759,8.74038 0,8.54084 2.59418,14.1283 2.59418,5.54756 7.10406,7.94218 4.50988,2.35472 9.09959,2.35472 l 1.87579,-0.0399 q 3.19283,-0.39911 4.35024,-0.7583 2.91346,-0.83812 4.78925,-1.95561 1.9157,-1.1574 3.71167,-3.23275 1.83588,-2.07534 3.11302,-4.82916 l 0.47892,-0.15964 q 0.19955,0 0.59866,0.23946 -0.0399,0.95785 -0.0798,1.23722 -1.67624,6.74487 -2.43454,9.21932 -0.63857,0.15964 -1.59642,0.47892 -4.66952,1.59642 -12.49197,1.59642 -6.30585,0 -9.45878,-0.87803 -3.11301,-0.83812 -6.82468,-2.63409 -3.67176,-1.83588 -6.4655,-4.82916 -2.79373,-2.99329 -4.50988,-7.54308 -1.71615,-4.5897 -1.71615,-9.97761 0,-5.10854 1.35696,-8.90003 1.35695,-3.83141 4.1906,-7.74263 2.83364,-3.91122 6.66504,-6.5054 3.87132,-2.59418 8.58075,-3.67176 3.31257,-0.71839 9.37895,-0.71839 4.43006,0 8.34129,1.19731 3.91122,1.1574 5.22827,2.2749 z"
           style="font-style:normal;font-variant:normal;font-weight:normal;font-stretch:normal;font-size:81.7366px;font-family:Garamond;-inkscape-font-specification:'Garamond, Normal';font-variant-ligatures:normal;font-variant-caps:normal;font-variant-numeric:normal;font-variant-east-asian:normal;fill:#031f00;stroke:#ffffff;stroke-width:2;stroke-miterlimit:4;stroke-dasharray:none;stroke-opacity:1;paint-order:stroke markers fill"
           id="path1042" />
        <path
           d="m 507.0958,414.1941 1.63633,-6.02648 q 0.15964,-1.19731 0.43902,-1.5166 0.27937,-0.35919 0.63856,-0.35919 0.71839,0 1.63633,1.71615 0.67848,1.23722 1.1175,1.59642 0.43901,0.31928 1.27713,0.43901 l 0.3991,-0.0399 1.71615,0.15964 9.41887,0.11973 11.13502,-0.0399 h 3.27265 l 6.18612,-0.11973 q 0.39911,0 0.99776,0.0798 2.71391,0.23947 3.35248,0.23947 0.59866,0 0.95785,-0.39911 0.11973,-0.15964 1.31705,-2.71391 0.51883,-1.1574 1.27713,-1.1574 0.31929,0 0.79821,0.15964 0.19955,0.79821 0.19955,1.43678 l -0.0399,1.59641 0.0399,3.39239 q 0,1.23723 -0.19955,7.98209 0,0.43902 -0.15964,0.79821 -0.43902,0.27937 -0.7583,0.27937 -0.31928,0 -0.55875,-0.27937 -0.23946,-0.31928 -0.59865,-1.87579 -0.79821,-3.59194 -1.99553,-5.14845 -0.7982,-0.99776 -2.3148,-1.43677 -1.47669,-0.43902 -7.14397,-0.43902 -4.54979,0 -6.74487,0.15964 -0.0798,1.59642 -0.0798,2.91347 l 0.31928,24.78439 q 0,1.47668 -0.15964,5.58746 l 0.0399,5.30809 -0.0399,2.95337 q 0,1.39687 0.47893,1.99552 0.47892,0.59866 2.59418,1.15741 3.67176,0.91794 4.90898,1.11749 0.7583,0.0798 1.23723,0.31928 v 1.19732 l -5.66729,-0.15964 q -4.66952,-0.0399 -7.02424,-0.19956 l -5.82692,0.27938 -4.27042,0.23946 q -1.79597,0 -2.19508,-0.0798 l -0.55874,-0.23946 q 0.0798,-0.91794 0.35919,-1.15741 0.27938,-0.27937 1.47669,-0.43901 1.67624,-0.23947 3.95113,-0.83812 2.2749,-0.63857 2.99329,-1.27714 0.3991,-0.35919 0.55874,-1.19731 0.3592,-1.75606 0.3592,-6.90451 v -6.78477 l -0.15964,-14.80678 -0.15965,-3.19284 -0.0399,-10.65609 q -2.51435,-0.27937 -6.42558,-0.27937 -5.7471,0 -6.98433,0.71839 -1.95561,1.11749 -5.82692,6.54531 -1.27714,2.03543 -2.23499,2.03543 l -0.35919,-0.0798 q -0.15964,-0.23946 -0.15964,-0.43901 0,-0.47893 0.63856,-2.87355 0.79821,-3.07311 0.95785,-4.15069 z"
           style="font-style:normal;font-variant:normal;font-weight:normal;font-stretch:normal;font-size:81.7366px;font-family:Garamond;-inkscape-font-specification:'Garamond, Normal';font-variant-ligatures:normal;font-variant-caps:normal;font-variant-numeric:normal;font-variant-east-asian:normal;fill:#031f00;stroke:#ffffff;stroke-width:2;stroke-miterlimit:4;stroke-dasharray:none;stroke-opacity:1;paint-order:stroke markers fill"
           id="path1044" />
        <path
           d="m 557.62243,458.01577 q 0.87803,-0.35919 1.79597,-0.43901 6.1063,-0.39911 6.98433,-1.43678 0.87803,-1.07758 0.87803,-10.25698 l -0.0399,-4.1906 v -4.39015 l -0.15964,-4.82917 0.0798,-2.83364 -0.0399,-3.11301 v -3.67176 l -0.0798,-1.63633 0.0798,-2.07535 q 0.0399,-0.71838 0.0399,-1.67623 0,-2.51436 -0.23947,-5.30809 -0.15964,-0.55875 -0.43901,-1.07759 -1.47669,-0.7583 -4.78925,-0.99776 -3.27266,-0.27937 -3.71168,-0.59865 -0.31928,-0.23947 -0.35919,-1.23723 h 3.35248 l 10.57627,0.23946 q 4.07086,0 10.85564,-0.23946 0,0.63857 -0.0798,1.19731 -0.79821,0.19956 -2.674,0.43902 -3.79149,0.43901 -4.62961,0.83812 -0.51884,0.19955 -0.7583,0.67848 -0.39911,0.71839 -0.47893,2.674 l -0.19955,5.14845 0.15964,17.76015 v 7.02424 q -0.0798,3.31256 -0.0798,4.50988 0,4.46997 0.19955,5.70719 0.23947,1.23722 0.7583,1.79597 0.55875,0.51884 1.79597,0.83812 1.83588,0.43902 2.87355,0.47893 2.23499,0.0798 2.83365,0.63856 0.11973,0.51884 0.11973,0.87803 v 0.31929 q -3.63185,0.11973 -5.348,0.11973 -0.99776,0 -3.55203,-0.11973 l -5.50764,0.0798 -9.37896,-0.0399 h -0.7583 z"
           style="font-style:normal;font-variant:normal;font-weight:normal;font-stretch:normal;font-size:81.7366px;font-family:Garamond;-inkscape-font-specification:'Garamond, Normal';font-variant-ligatures:normal;font-variant-caps:normal;font-variant-numeric:normal;font-variant-east-asian:normal;fill:#031f00;stroke:#ffffff;stroke-width:2;stroke-miterlimit:4;stroke-dasharray:none;stroke-opacity:1;paint-order:stroke markers fill"
           id="path1046" />
        <path
           d="m 588.59292,433.79013 q 0,-4.07087 0.95785,-7.22379 0.99776,-3.19284 3.31257,-6.90451 2.31481,-3.71167 5.58746,-6.18612 3.27266,-2.51436 9.05968,-4.43006 4.07086,-1.31704 10.29689,-1.31704 4.1906,0 8.18164,1.11749 4.03096,1.11749 7.30362,3.11301 3.27265,1.99553 6.54531,6.14621 2.2749,2.87356 3.4323,6.18612 1.5166,4.35024 1.5166,8.97985 0,5.26818 -1.03768,8.74039 -0.99776,3.47221 -3.39238,6.8646 -1.8758,2.63409 -6.42559,6.06639 -3.03319,2.3148 -7.54307,3.75158 -4.50988,1.39687 -9.73815,1.39687 -5.30809,0 -9.45878,-1.23723 -4.15069,-1.23722 -6.94442,-2.99328 -2.75382,-1.79597 -5.70719,-5.26818 -2.91346,-3.47221 -4.43006,-7.66281 -1.5166,-4.19059 -1.5166,-9.13949 z m 27.69785,24.8243 q 3.35248,0 6.94442,-0.91794 3.63185,-0.95785 6.42559,-3.11302 2.79373,-2.19507 4.35023,-4.94889 1.59642,-2.79373 2.55427,-7.14397 0.95785,-4.35024 0.95785,-8.70048 0,-5.42782 -1.59641,-10.73591 -1.23723,-4.03096 -4.03096,-7.18388 -2.79373,-3.19284 -6.74487,-4.90899 -3.95113,-1.75606 -8.4211,-1.75606 -3.63185,0 -7.10406,1.19732 -3.47221,1.19731 -5.7072,3.0731 -2.23498,1.83588 -4.15068,5.26818 -1.9157,3.39239 -2.91347,7.50316 -0.99776,4.11078 -0.99776,7.26371 0,3.31256 0.99776,7.50316 0.99777,4.1906 2.71392,7.2637 1.75606,3.07311 4.27041,5.46774 2.55427,2.35471 5.7072,3.63185 3.15292,1.23722 6.74486,1.23722 z"
           style="font-style:normal;font-variant:normal;font-weight:normal;font-stretch:normal;font-size:81.7366px;font-family:Garamond;-inkscape-font-specification:'Garamond, Normal';font-variant-ligatures:normal;font-variant-caps:normal;font-variant-numeric:normal;font-variant-east-asian:normal;fill:#031f00;stroke:#ffffff;stroke-width:2;stroke-miterlimit:4;stroke-dasharray:none;stroke-opacity:1;paint-order:stroke markers fill"
           id="path1048" />
        <path
           d="m 649.77564,410.48243 -0.0399,-1.9157 q 6.18612,0 9.05967,-0.31929 1.1175,-0.11973 1.55651,-0.11973 0.35919,0 1.07758,0.0399 1.67624,1.39687 3.11302,3.19284 0.31928,0.35919 0.71839,0.79821 l 8.4211,9.29913 1.19731,1.43678 q 2.55427,2.99328 4.62962,5.10853 2.11525,2.11526 8.18164,8.82021 l 9.5386,10.57627 q 1.39686,1.55651 3.59194,3.87132 l 0.0399,-0.63857 q -0.23946,-5.54755 -0.23946,-5.86684 l 0.15964,-2.39462 -0.0798,-3.75159 v -1.71615 q 0,-1.63632 -0.27938,-10.09734 -0.0399,-1.1574 -0.31928,-4.35024 -0.27937,-3.23274 -0.27937,-5.66728 0,-4.39015 -0.51884,-5.10854 -0.35919,-0.51884 -3.39239,-1.07758 -0.71839,-0.0399 -2.23498,-0.23946 -1.79597,-0.0798 -2.11526,-0.19956 -0.31928,-0.11973 -0.63856,-0.67847 0.0798,-0.63857 0.35919,-1.19732 1.07758,-0.31928 2.11525,-0.31928 1.1175,0 2.75382,0.27937 1.67624,0.27937 2.99329,0.27937 1.83588,0 5.70719,-0.23946 2.19508,-0.15964 3.0332,-0.15964 h 0.67847 l -0.0798,1.23722 q -0.63856,0.27938 -1.75606,0.3592 -1.11749,0.0399 -2.07534,0.31928 -1.43678,0.43902 -1.71615,0.7583 -0.95785,1.03767 -0.95785,2.11525 l 0.43902,12.61171 0.31928,5.78701 -0.0399,1.67624 0.23946,8.022 q 0.23946,8.22155 0.23946,14.28794 0,1.31705 -0.15964,5.7072 l -1.87579,0.15964 q -1.39686,-1.59642 -9.61842,-10.05743 -1.9157,-1.95562 -2.59418,-2.75383 l -3.4323,-3.95113 q -1.99552,-2.19508 -2.59417,-2.79373 -0.59866,-0.59866 -0.87803,-0.87803 -4.35024,-4.9489 -11.29466,-12.37224 -1.87579,-1.99552 -5.50764,-6.22603 -2.2749,-2.674 -2.87356,-3.27266 -0.59865,-0.59866 -1.63633,-1.35695 l -0.11973,1.35695 q 0,7.78254 0.39911,21.47182 l 0.27937,13.21036 q 0.0399,1.67624 0.19955,3.23275 l 1.39687,0.31928 q 3.79149,0.3592 7.46325,1.07759 0.27938,0.23946 0.47893,0.35919 l -0.0399,1.5166 q -0.63857,0.19955 -1.03767,0.19955 -0.43902,0 -1.07759,-0.0798 -3.95113,-0.31929 -9.61841,-0.31929 -3.99105,0 -7.02424,0.19956 l -0.55875,0.0399 q -0.35919,0 -1.03767,-0.0798 l -0.0399,-1.19732 1.03767,-0.47892 1.87579,-0.27938 q 2.51436,-0.35919 3.67176,-0.79821 0.7583,-0.27937 1.23723,-0.83811 0.43901,-2.75383 0.43901,-8.06192 0,-2.47444 -0.11973,-9.05967 v -5.42782 l -0.0798,-11.33457 q -0.0798,-7.58298 -0.51884,-8.93994 -0.23946,-0.71839 -0.99776,-1.27713 -1.5166,-1.07758 -3.99104,-1.35696 -2.43454,-0.27937 -3.15293,-0.47892 z"
           style="font-style:normal;font-variant:normal;font-weight:normal;font-stretch:normal;font-size:81.7366px;font-family:Garamond;-inkscape-font-specification:'Garamond, Normal';font-variant-ligatures:normal;font-variant-caps:normal;font-variant-numeric:normal;font-variant-east-asian:normal;fill:#031f00;stroke:#ffffff;stroke-width:2;stroke-miterlimit:4;stroke-dasharray:none;stroke-opacity:1;paint-order:stroke markers fill"
           id="path1050" />
      </g>
    </g>
  </g>
  <g
     inkscape:groupmode="layer"
     id="g866"
     inkscape:label="Logo"
     style="display:inline"
     sodipodi:insensitive="true">
    <g
       inkscape:label="Clip"
       id="g854"
       style="stroke:#ffffff;stroke-width:0.981172;stroke-miterlimit:4;stroke-dasharray:none;stroke-opacity:1;paint-order:stroke markers fill"
       transform="matrix(2.8947499,0,0,3.2295468,-28.16829,-183.88445)">
      <g
         id="g852"
         style="opacity:1;stroke:#ffffff;stroke-width:0.981172;stroke-miterlimit:4;stroke-dasharray:none;stroke-opacity:1;paint-order:stroke markers fill"
         transform="translate(-124.73214,21.922619)">
        <path
           id="path850"
           style="color:#000000;font-style:normal;font-variant:normal;font-weight:normal;font-stretch:normal;font-size:medium;line-height:normal;font-family:sans-serif;font-variant-ligatures:normal;font-variant-position:normal;font-variant-caps:normal;font-variant-numeric:normal;font-variant-alternates:normal;font-variant-east-asian:normal;font-feature-settings:normal;font-variation-settings:normal;text-indent:0;text-align:start;text-decoration:none;text-decoration-line:none;text-decoration-style:solid;text-decoration-color:#000000;letter-spacing:normal;word-spacing:normal;text-transform:none;writing-mode:lr-tb;direction:ltr;text-orientation:mixed;dominant-baseline:auto;baseline-shift:baseline;text-anchor:start;white-space:normal;shape-padding:0;shape-margin:0;inline-size:0;clip-rule:nonzero;display:inline;overflow:visible;visibility:visible;isolation:auto;mix-blend-mode:normal;color-interpolation:sRGB;color-interpolation-filters:linearRGB;solid-color:#000000;solid-opacity:1;vector-effect:none;fill:url(#linearGradient1039);fill-opacity:1;fill-rule:nonzero;stroke:#ffffff;stroke-width:0.981172;stroke-linecap:butt;stroke-linejoin:miter;stroke-miterlimit:4;stroke-dasharray:none;stroke-dashoffset:0;stroke-opacity:1;paint-order:stroke markers fill;color-rendering:auto;image-rendering:auto;shape-rendering:auto;text-rendering:auto;enable-background:accumulate;stop-color:#000000;stop-opacity:1"
           d="m 225.42234,37.911637 c -40.67496,7.544186 -98.44041,77.210113 -85.03348,138.983463 13.40693,61.77336 79.25833,-68.59188 94.41568,-77.653569 15.15736,-9.061679 21.86723,75.370199 46.12014,49.546259 C 305.17758,122.96386 266.0973,30.367451 225.42234,37.911637 Z m -12.62044,9.127089 c 30.95868,-12.702377 60.01501,50.337004 54.94378,69.735794 -5.07122,19.39879 -18.29994,-26.043526 -41.69904,-23.521844 -23.39911,2.521683 -49.84796,60.325684 -55.79306,35.295004 -5.9451,-25.03068 11.58965,-68.806578 42.54832,-81.508954 z"
           sodipodi:nodetypes="zzzzzzzzzz" />
      </g>
    </g>
  </g>
</svg>
